<mxfile host="app.diagrams.net" modified="2023-12-16T17:31:01.929Z" agent="Mozilla/5.0 (Windows NT 10.0; Win64; x64) AppleWebKit/537.36 (KHTML, like Gecko) Chrome/120.0.0.0 Safari/537.36" etag="RKykuF7u5YOVE97Od0Wq" version="21.5.2" type="device">
  <diagram name="Page-1" id="e56a1550-8fbb-45ad-956c-1786394a9013">
    <mxGraphModel dx="1032" dy="561" grid="1" gridSize="10" guides="1" tooltips="1" connect="1" arrows="1" fold="1" page="1" pageScale="1" pageWidth="1654" pageHeight="1169" background="none" math="0" shadow="0">
      <root>
        <mxCell id="0" />
        <mxCell id="1" parent="0" />
        <mxCell id="UdkjZhPED4S_4okrrKyf-34" value="Course" style="whiteSpace=wrap;html=1;align=center;" parent="1" vertex="1">
          <mxGeometry x="1220.17" y="810" width="100" height="40" as="geometry" />
        </mxCell>
        <mxCell id="UdkjZhPED4S_4okrrKyf-42" value="" style="endArrow=none;html=1;rounded=0;entryX=1;entryY=1;entryDx=0;entryDy=0;" parent="1" source="UdkjZhPED4S_4okrrKyf-41" target="UdkjZhPED4S_4okrrKyf-34" edge="1">
          <mxGeometry relative="1" as="geometry">
            <mxPoint x="847.5" y="1042.87" as="sourcePoint" />
            <mxPoint x="1337.67" y="806.87" as="targetPoint" />
            <Array as="points" />
          </mxGeometry>
        </mxCell>
        <mxCell id="UdkjZhPED4S_4okrrKyf-58" value="user_password" style="ellipse;whiteSpace=wrap;html=1;align=center;" parent="1" vertex="1">
          <mxGeometry x="1015.1700000000002" y="85" width="100" height="40" as="geometry" />
        </mxCell>
        <mxCell id="UdkjZhPED4S_4okrrKyf-80" value="" style="endArrow=none;html=1;rounded=0;exitX=1;exitY=0.25;exitDx=0;exitDy=0;entryX=0;entryY=1;entryDx=0;entryDy=0;" parent="1" source="UdkjZhPED4S_4okrrKyf-79" target="UdkjZhPED4S_4okrrKyf-58" edge="1">
          <mxGeometry relative="1" as="geometry">
            <mxPoint x="905" y="184" as="sourcePoint" />
            <mxPoint x="656" y="241" as="targetPoint" />
            <Array as="points" />
          </mxGeometry>
        </mxCell>
        <mxCell id="UdkjZhPED4S_4okrrKyf-83" value="user_id" style="ellipse;whiteSpace=wrap;html=1;align=center;fontStyle=4;" parent="1" vertex="1">
          <mxGeometry x="885" y="50" width="100" height="40" as="geometry" />
        </mxCell>
        <mxCell id="UdkjZhPED4S_4okrrKyf-84" value="" style="endArrow=none;html=1;rounded=0;entryX=0.921;entryY=-0.066;entryDx=0;entryDy=0;entryPerimeter=0;" parent="1" source="UdkjZhPED4S_4okrrKyf-83" target="UdkjZhPED4S_4okrrKyf-79" edge="1">
          <mxGeometry relative="1" as="geometry">
            <mxPoint x="685" y="70" as="sourcePoint" />
            <mxPoint x="620" y="150" as="targetPoint" />
          </mxGeometry>
        </mxCell>
        <mxCell id="UdkjZhPED4S_4okrrKyf-87" value="Exam" style="whiteSpace=wrap;html=1;align=center;" parent="1" vertex="1">
          <mxGeometry x="257.53999999999996" y="1300.45" width="100" height="40" as="geometry" />
        </mxCell>
        <mxCell id="UdkjZhPED4S_4okrrKyf-117" value="" style="shape=link;html=1;rounded=0;entryX=0.5;entryY=0;entryDx=0;entryDy=0;" parent="1" source="UdkjZhPED4S_4okrrKyf-79" target="UdkjZhPED4S_4okrrKyf-91" edge="1">
          <mxGeometry relative="1" as="geometry">
            <mxPoint x="655" y="150" as="sourcePoint" />
            <mxPoint x="820" y="240" as="targetPoint" />
            <Array as="points" />
          </mxGeometry>
        </mxCell>
        <mxCell id="UdkjZhPED4S_4okrrKyf-118" value="" style="resizable=0;html=1;whiteSpace=wrap;align=right;verticalAlign=bottom;" parent="UdkjZhPED4S_4okrrKyf-117" connectable="0" vertex="1">
          <mxGeometry x="1" relative="1" as="geometry" />
        </mxCell>
        <mxCell id="UdkjZhPED4S_4okrrKyf-119" value="" style="endArrow=classic;html=1;rounded=0;entryX=0.75;entryY=0;entryDx=0;entryDy=0;" parent="1" source="UdkjZhPED4S_4okrrKyf-91" target="UdkjZhPED4S_4okrrKyf-86" edge="1">
          <mxGeometry width="50" height="50" relative="1" as="geometry">
            <mxPoint x="660" y="280" as="sourcePoint" />
            <mxPoint x="667" y="470" as="targetPoint" />
          </mxGeometry>
        </mxCell>
        <mxCell id="UdkjZhPED4S_4okrrKyf-120" value="Admin" style="whiteSpace=wrap;html=1;align=center;" parent="1" vertex="1">
          <mxGeometry x="130.33999999999997" y="467.5" width="100" height="40" as="geometry" />
        </mxCell>
        <mxCell id="UdkjZhPED4S_4okrrKyf-122" value="Teacher" style="whiteSpace=wrap;html=1;align=center;" parent="1" vertex="1">
          <mxGeometry x="1450.17" y="467.5" width="100" height="40" as="geometry" />
        </mxCell>
        <mxCell id="UdkjZhPED4S_4okrrKyf-123" value="" style="endArrow=classic;html=1;rounded=0;entryX=0.5;entryY=0;entryDx=0;entryDy=0;" parent="1" source="UdkjZhPED4S_4okrrKyf-91" target="UdkjZhPED4S_4okrrKyf-122" edge="1">
          <mxGeometry width="50" height="50" relative="1" as="geometry">
            <mxPoint x="650" y="315" as="sourcePoint" />
            <mxPoint x="1310.17" y="475" as="targetPoint" />
            <Array as="points">
              <mxPoint x="1500.17" y="315" />
            </Array>
          </mxGeometry>
        </mxCell>
        <mxCell id="UdkjZhPED4S_4okrrKyf-124" value="" style="endArrow=classic;html=1;rounded=0;" parent="1" edge="1">
          <mxGeometry width="50" height="50" relative="1" as="geometry">
            <mxPoint x="670" y="315" as="sourcePoint" />
            <mxPoint x="190" y="470" as="targetPoint" />
            <Array as="points">
              <mxPoint x="190.17" y="315" />
              <mxPoint x="190.17" y="395" />
            </Array>
          </mxGeometry>
        </mxCell>
        <mxCell id="UdkjZhPED4S_4okrrKyf-137" value="" style="endArrow=none;html=1;rounded=0;exitX=1;exitY=0.75;exitDx=0;exitDy=0;" parent="1" source="UdkjZhPED4S_4okrrKyf-79" target="UdkjZhPED4S_4okrrKyf-141" edge="1">
          <mxGeometry relative="1" as="geometry">
            <mxPoint x="592" y="369.5" as="sourcePoint" />
            <mxPoint x="527" y="417.5" as="targetPoint" />
          </mxGeometry>
        </mxCell>
        <mxCell id="UdkjZhPED4S_4okrrKyf-138" value="" style="resizable=0;html=1;whiteSpace=wrap;align=right;verticalAlign=bottom;" parent="UdkjZhPED4S_4okrrKyf-137" connectable="0" vertex="1">
          <mxGeometry x="1" relative="1" as="geometry" />
        </mxCell>
        <mxCell id="UdkjZhPED4S_4okrrKyf-141" value="personal_email" style="ellipse;whiteSpace=wrap;html=1;align=center;" parent="1" vertex="1">
          <mxGeometry x="632.54" y="50" width="140" height="40" as="geometry" />
        </mxCell>
        <mxCell id="UdkjZhPED4S_4okrrKyf-146" value="guardian_name" style="ellipse;whiteSpace=wrap;html=1;align=center;" parent="1" vertex="1">
          <mxGeometry x="952" y="427.5" width="100" height="40" as="geometry" />
        </mxCell>
        <mxCell id="UdkjZhPED4S_4okrrKyf-148" value="id_number" style="ellipse;whiteSpace=wrap;html=1;align=center;" parent="1" vertex="1">
          <mxGeometry x="624.83" y="265" width="90" height="40" as="geometry" />
        </mxCell>
        <mxCell id="UdkjZhPED4S_4okrrKyf-151" value="" style="endArrow=none;html=1;rounded=0;exitX=0.7;exitY=0.083;exitDx=0;exitDy=0;exitPerimeter=0;entryX=0.25;entryY=1;entryDx=0;entryDy=0;" parent="1" source="UdkjZhPED4S_4okrrKyf-148" target="UdkjZhPED4S_4okrrKyf-79" edge="1">
          <mxGeometry relative="1" as="geometry">
            <mxPoint x="447" y="367.5" as="sourcePoint" />
            <mxPoint x="607" y="367.5" as="targetPoint" />
          </mxGeometry>
        </mxCell>
        <mxCell id="UdkjZhPED4S_4okrrKyf-154" value="" style="endArrow=none;html=1;rounded=0;entryX=0;entryY=0.5;entryDx=0;entryDy=0;" parent="1" source="UdkjZhPED4S_4okrrKyf-86" target="TxaWYDUw6tSnyGA78lyz-3" edge="1">
          <mxGeometry relative="1" as="geometry">
            <mxPoint x="700.17" y="505" as="sourcePoint" />
            <mxPoint x="732.0527359802691" y="540.7632713433522" as="targetPoint" />
          </mxGeometry>
        </mxCell>
        <mxCell id="UdkjZhPED4S_4okrrKyf-155" value="" style="endArrow=none;html=1;rounded=0;exitX=1;exitY=0.5;exitDx=0;exitDy=0;entryX=0;entryY=1;entryDx=0;entryDy=0;" parent="1" source="UdkjZhPED4S_4okrrKyf-86" target="UdkjZhPED4S_4okrrKyf-146" edge="1">
          <mxGeometry relative="1" as="geometry">
            <mxPoint x="537.17" y="422.5" as="sourcePoint" />
            <mxPoint x="731.17" y="398" as="targetPoint" />
          </mxGeometry>
        </mxCell>
        <mxCell id="UdkjZhPED4S_4okrrKyf-162" value="lname" style="ellipse;whiteSpace=wrap;html=1;align=center;" parent="1" vertex="1">
          <mxGeometry x="1220.17" y="100" width="100" height="40" as="geometry" />
        </mxCell>
        <mxCell id="UdkjZhPED4S_4okrrKyf-163" value="" style="endArrow=none;html=1;rounded=0;exitX=1;exitY=0;exitDx=0;exitDy=0;entryX=0;entryY=0.5;entryDx=0;entryDy=0;" parent="1" source="w-RnadfowD6wGREnBTG5-8" target="UdkjZhPED4S_4okrrKyf-162" edge="1">
          <mxGeometry relative="1" as="geometry">
            <mxPoint x="1485" y="400.13" as="sourcePoint" />
            <mxPoint x="1397.0692173359948" y="378.5516131733774" as="targetPoint" />
          </mxGeometry>
        </mxCell>
        <mxCell id="UdkjZhPED4S_4okrrKyf-170" value="" style="endArrow=none;html=1;rounded=0;exitX=0;exitY=0.75;exitDx=0;exitDy=0;entryX=0.5;entryY=0;entryDx=0;entryDy=0;" parent="1" source="UdkjZhPED4S_4okrrKyf-122" edge="1">
          <mxGeometry relative="1" as="geometry">
            <mxPoint x="1290.17" y="575.13" as="sourcePoint" />
            <mxPoint x="1395.17" y="557.5" as="targetPoint" />
          </mxGeometry>
        </mxCell>
        <mxCell id="UdkjZhPED4S_4okrrKyf-172" value="has" style="shape=rhombus;perimeter=rhombusPerimeter;whiteSpace=wrap;html=1;align=center;" parent="1" vertex="1">
          <mxGeometry x="1210.17" y="1005" width="120" height="60" as="geometry" />
        </mxCell>
        <mxCell id="UdkjZhPED4S_4okrrKyf-173" value="" style="endArrow=none;html=1;rounded=0;entryX=0.5;entryY=0;entryDx=0;entryDy=0;exitX=0.5;exitY=1;exitDx=0;exitDy=0;shape=link;" parent="1" source="UdkjZhPED4S_4okrrKyf-34" target="UdkjZhPED4S_4okrrKyf-172" edge="1">
          <mxGeometry relative="1" as="geometry">
            <mxPoint x="1380" y="880" as="sourcePoint" />
            <mxPoint x="1200" y="1020" as="targetPoint" />
            <Array as="points">
              <mxPoint x="1270" y="1000" />
            </Array>
          </mxGeometry>
        </mxCell>
        <mxCell id="UdkjZhPED4S_4okrrKyf-174" value="" style="resizable=0;html=1;whiteSpace=wrap;align=right;verticalAlign=bottom;" parent="UdkjZhPED4S_4okrrKyf-173" connectable="0" vertex="1">
          <mxGeometry x="1" relative="1" as="geometry">
            <mxPoint x="105" y="170" as="offset" />
          </mxGeometry>
        </mxCell>
        <mxCell id="UdkjZhPED4S_4okrrKyf-175" value="Batch" style="whiteSpace=wrap;html=1;align=center;" parent="1" vertex="1">
          <mxGeometry x="1225" y="1345" width="100" height="40" as="geometry" />
        </mxCell>
        <mxCell id="UdkjZhPED4S_4okrrKyf-176" value="exam_id" style="ellipse;whiteSpace=wrap;html=1;align=center;fontStyle=4;" parent="1" vertex="1">
          <mxGeometry x="137.54" y="1195" width="100" height="40" as="geometry" />
        </mxCell>
        <mxCell id="UdkjZhPED4S_4okrrKyf-178" value="batch_id" style="ellipse;whiteSpace=wrap;html=1;align=center;fontStyle=4;" parent="1" vertex="1">
          <mxGeometry x="1194.8300000000002" y="1530" width="100" height="40" as="geometry" />
        </mxCell>
        <mxCell id="UdkjZhPED4S_4okrrKyf-179" value="batch_description" style="ellipse;whiteSpace=wrap;html=1;align=center;" parent="1" vertex="1">
          <mxGeometry x="1350.17" y="1475" width="140" height="40" as="geometry" />
        </mxCell>
        <mxCell id="UdkjZhPED4S_4okrrKyf-180" value="" style="endArrow=none;html=1;rounded=0;exitX=0.355;exitY=0.035;exitDx=0;exitDy=0;entryX=0.25;entryY=1;entryDx=0;entryDy=0;exitPerimeter=0;" parent="1" source="UdkjZhPED4S_4okrrKyf-178" target="UdkjZhPED4S_4okrrKyf-175" edge="1">
          <mxGeometry relative="1" as="geometry">
            <mxPoint x="720" y="740" as="sourcePoint" />
            <mxPoint x="879.9999999999999" y="740" as="targetPoint" />
          </mxGeometry>
        </mxCell>
        <mxCell id="UdkjZhPED4S_4okrrKyf-181" value="" style="endArrow=none;html=1;rounded=0;entryX=0.75;entryY=1;entryDx=0;entryDy=0;" parent="1" source="UdkjZhPED4S_4okrrKyf-179" target="UdkjZhPED4S_4okrrKyf-175" edge="1">
          <mxGeometry relative="1" as="geometry">
            <mxPoint x="680" y="1240" as="sourcePoint" />
            <mxPoint x="1300" y="1310" as="targetPoint" />
            <Array as="points" />
          </mxGeometry>
        </mxCell>
        <mxCell id="UdkjZhPED4S_4okrrKyf-185" value="" style="endArrow=none;html=1;rounded=0;entryX=0.5;entryY=1;entryDx=0;entryDy=0;shape=link;" parent="1" source="UdkjZhPED4S_4okrrKyf-175" target="UdkjZhPED4S_4okrrKyf-172" edge="1">
          <mxGeometry relative="1" as="geometry">
            <mxPoint x="750" y="1240" as="sourcePoint" />
            <mxPoint x="1020" y="1070" as="targetPoint" />
          </mxGeometry>
        </mxCell>
        <mxCell id="UdkjZhPED4S_4okrrKyf-41" value="course_id" style="ellipse;whiteSpace=wrap;html=1;align=center;fontStyle=4;" parent="1" vertex="1">
          <mxGeometry x="1400.17" y="840" width="90" height="40" as="geometry" />
        </mxCell>
        <mxCell id="UdkjZhPED4S_4okrrKyf-187" value="Payment" style="whiteSpace=wrap;html=1;align=center;" parent="1" vertex="1">
          <mxGeometry x="637.17" y="930" width="100" height="40" as="geometry" />
        </mxCell>
        <mxCell id="UdkjZhPED4S_4okrrKyf-190" value="teach" style="shape=rhombus;perimeter=rhombusPerimeter;whiteSpace=wrap;html=1;align=center;" parent="1" vertex="1">
          <mxGeometry x="1442" y="620" width="80" height="60" as="geometry" />
        </mxCell>
        <mxCell id="UdkjZhPED4S_4okrrKyf-191" value="" style="endArrow=none;html=1;rounded=0;exitX=0.5;exitY=0;exitDx=0;exitDy=0;shape=link;" parent="1" source="UdkjZhPED4S_4okrrKyf-190" edge="1">
          <mxGeometry relative="1" as="geometry">
            <mxPoint x="1500.17" y="665" as="sourcePoint" />
            <mxPoint x="1482" y="510" as="targetPoint" />
          </mxGeometry>
        </mxCell>
        <mxCell id="UdkjZhPED4S_4okrrKyf-192" value="" style="endArrow=none;html=1;rounded=0;exitX=0.5;exitY=0;exitDx=0;exitDy=0;entryX=0.5;entryY=1;entryDx=0;entryDy=0;" parent="1" source="UdkjZhPED4S_4okrrKyf-34" target="UdkjZhPED4S_4okrrKyf-190" edge="1">
          <mxGeometry relative="1" as="geometry">
            <mxPoint x="1380" y="690" as="sourcePoint" />
            <mxPoint x="1265" y="720" as="targetPoint" />
            <Array as="points">
              <mxPoint x="1270" y="720" />
              <mxPoint x="1482" y="720" />
            </Array>
          </mxGeometry>
        </mxCell>
        <mxCell id="UdkjZhPED4S_4okrrKyf-198" value="" style="endArrow=none;html=1;rounded=0;entryX=0.5;entryY=0;entryDx=0;entryDy=0;" parent="1" target="UdkjZhPED4S_4okrrKyf-199" edge="1">
          <mxGeometry relative="1" as="geometry">
            <mxPoint x="720" y="510" as="sourcePoint" />
            <mxPoint x="395" y="550" as="targetPoint" />
            <Array as="points">
              <mxPoint x="720" y="610" />
              <mxPoint x="640" y="610" />
              <mxPoint x="640" y="760" />
              <mxPoint x="265" y="760" />
            </Array>
          </mxGeometry>
        </mxCell>
        <mxCell id="UdkjZhPED4S_4okrrKyf-199" value="participate for" style="shape=rhombus;perimeter=rhombusPerimeter;whiteSpace=wrap;html=1;align=center;" parent="1" vertex="1">
          <mxGeometry x="205" y="940" width="120" height="60" as="geometry" />
        </mxCell>
        <mxCell id="UdkjZhPED4S_4okrrKyf-200" value="" style="endArrow=none;html=1;rounded=0;exitX=0.5;exitY=1;exitDx=0;exitDy=0;shape=link;entryX=0;entryY=1;entryDx=0;entryDy=0;" parent="1" source="UdkjZhPED4S_4okrrKyf-199" target="bPdjGQ_32wZ3Fuaz51Pp-27" edge="1">
          <mxGeometry relative="1" as="geometry">
            <mxPoint x="460" y="1020" as="sourcePoint" />
            <mxPoint x="550" y="1660" as="targetPoint" />
            <Array as="points">
              <mxPoint x="265" y="1140" />
              <mxPoint x="120" y="1140" />
              <mxPoint x="120" y="1630" />
            </Array>
          </mxGeometry>
        </mxCell>
        <mxCell id="UdkjZhPED4S_4okrrKyf-206" value="" style="endArrow=none;html=1;rounded=0;exitX=0.25;exitY=0;exitDx=0;exitDy=0;" parent="1" source="UdkjZhPED4S_4okrrKyf-87" target="UdkjZhPED4S_4okrrKyf-176" edge="1">
          <mxGeometry relative="1" as="geometry">
            <mxPoint x="460" y="1020" as="sourcePoint" />
            <mxPoint x="620" y="1020" as="targetPoint" />
          </mxGeometry>
        </mxCell>
        <mxCell id="UdkjZhPED4S_4okrrKyf-207" value="" style="endArrow=none;html=1;rounded=0;entryX=0.5;entryY=0;entryDx=0;entryDy=0;shape=link;" parent="1" target="UdkjZhPED4S_4okrrKyf-208" edge="1">
          <mxGeometry relative="1" as="geometry">
            <mxPoint x="780" y="510" as="sourcePoint" />
            <mxPoint x="730" y="840" as="targetPoint" />
            <Array as="points">
              <mxPoint x="780" y="690" />
              <mxPoint x="683" y="690" />
            </Array>
          </mxGeometry>
        </mxCell>
        <mxCell id="UdkjZhPED4S_4okrrKyf-208" value="pays for&amp;nbsp;" style="shape=rhombus;perimeter=rhombusPerimeter;whiteSpace=wrap;html=1;align=center;" parent="1" vertex="1">
          <mxGeometry x="622.5" y="810" width="120" height="60" as="geometry" />
        </mxCell>
        <mxCell id="UdkjZhPED4S_4okrrKyf-212" value="exam_name" style="ellipse;whiteSpace=wrap;html=1;align=center;" parent="1" vertex="1">
          <mxGeometry x="407" y="1380.45" width="140" height="40" as="geometry" />
        </mxCell>
        <mxCell id="UdkjZhPED4S_4okrrKyf-213" value="exam_date" style="ellipse;whiteSpace=wrap;html=1;align=center;" parent="1" vertex="1">
          <mxGeometry x="427" y="1670" width="130" height="40" as="geometry" />
        </mxCell>
        <mxCell id="UdkjZhPED4S_4okrrKyf-214" value="exam_start_time" style="ellipse;whiteSpace=wrap;html=1;align=center;" parent="1" vertex="1">
          <mxGeometry x="782.17" y="1650" width="140" height="40" as="geometry" />
        </mxCell>
        <mxCell id="UdkjZhPED4S_4okrrKyf-217" value="" style="endArrow=none;html=1;rounded=0;exitX=0.221;exitY=0.173;exitDx=0;exitDy=0;entryX=0.75;entryY=1;entryDx=0;entryDy=0;exitPerimeter=0;" parent="1" source="UdkjZhPED4S_4okrrKyf-212" target="UdkjZhPED4S_4okrrKyf-87" edge="1">
          <mxGeometry relative="1" as="geometry">
            <mxPoint x="50" y="1130" as="sourcePoint" />
            <mxPoint x="87" y="1191" as="targetPoint" />
          </mxGeometry>
        </mxCell>
        <mxCell id="UdkjZhPED4S_4okrrKyf-218" value="" style="endArrow=none;html=1;rounded=0;entryX=0.75;entryY=1;entryDx=0;entryDy=0;exitX=0;exitY=0.5;exitDx=0;exitDy=0;" parent="1" source="UdkjZhPED4S_4okrrKyf-214" target="bPdjGQ_32wZ3Fuaz51Pp-27" edge="1">
          <mxGeometry relative="1" as="geometry">
            <mxPoint x="249.83" y="1260.45" as="sourcePoint" />
            <mxPoint x="159.83" y="1260.45" as="targetPoint" />
          </mxGeometry>
        </mxCell>
        <mxCell id="UdkjZhPED4S_4okrrKyf-219" value="" style="endArrow=none;html=1;rounded=0;entryX=0.137;entryY=0.975;entryDx=0;entryDy=0;exitX=0.62;exitY=0.087;exitDx=0;exitDy=0;exitPerimeter=0;entryPerimeter=0;" parent="1" source="UdkjZhPED4S_4okrrKyf-213" target="bPdjGQ_32wZ3Fuaz51Pp-27" edge="1">
          <mxGeometry relative="1" as="geometry">
            <mxPoint x="208.83" y="1303.45" as="sourcePoint" />
            <mxPoint x="159.83" y="1290.45" as="targetPoint" />
          </mxGeometry>
        </mxCell>
        <mxCell id="UdkjZhPED4S_4okrrKyf-220" value="CourseShedule" style="whiteSpace=wrap;html=1;align=center;" parent="1" vertex="1">
          <mxGeometry x="1084.83" y="1990" width="100" height="40" as="geometry" />
        </mxCell>
        <mxCell id="UdkjZhPED4S_4okrrKyf-222" value="has" style="shape=rhombus;perimeter=rhombusPerimeter;whiteSpace=wrap;html=1;align=center;" parent="1" vertex="1">
          <mxGeometry x="1074.83" y="1455" width="120" height="60" as="geometry" />
        </mxCell>
        <mxCell id="UdkjZhPED4S_4okrrKyf-224" value="" style="endArrow=none;html=1;rounded=0;exitX=0.25;exitY=1;exitDx=0;exitDy=0;entryX=0.414;entryY=0.053;entryDx=0;entryDy=0;entryPerimeter=0;" parent="1" source="bPdjGQ_32wZ3Fuaz51Pp-27" target="ghqXPNyZ9U7g0pVwa6VU-58" edge="1">
          <mxGeometry relative="1" as="geometry">
            <mxPoint x="449.83" y="1230.45" as="sourcePoint" />
            <mxPoint x="530" y="1714" as="targetPoint" />
          </mxGeometry>
        </mxCell>
        <mxCell id="UdkjZhPED4S_4okrrKyf-227" value="" style="endArrow=none;html=1;rounded=0;shape=link;entryX=0.5;entryY=0;entryDx=0;entryDy=0;exitX=0;exitY=0.75;exitDx=0;exitDy=0;" parent="1" source="UdkjZhPED4S_4okrrKyf-175" target="UdkjZhPED4S_4okrrKyf-222" edge="1">
          <mxGeometry relative="1" as="geometry">
            <mxPoint x="1270" y="1300" as="sourcePoint" />
            <mxPoint x="1320" y="1230" as="targetPoint" />
            <Array as="points">
              <mxPoint x="1135" y="1375" />
            </Array>
          </mxGeometry>
        </mxCell>
        <mxCell id="UdkjZhPED4S_4okrrKyf-228" value="" style="endArrow=none;html=1;rounded=0;exitX=0.5;exitY=1;exitDx=0;exitDy=0;shape=link;entryX=0.5;entryY=0;entryDx=0;entryDy=0;" parent="1" source="UdkjZhPED4S_4okrrKyf-222" target="UdkjZhPED4S_4okrrKyf-220" edge="1">
          <mxGeometry relative="1" as="geometry">
            <mxPoint x="699.83" y="1110.45" as="sourcePoint" />
            <mxPoint x="1120" y="2000" as="targetPoint" />
          </mxGeometry>
        </mxCell>
        <mxCell id="UdkjZhPED4S_4okrrKyf-235" value="exam_end_time" style="ellipse;whiteSpace=wrap;html=1;align=center;" parent="1" vertex="1">
          <mxGeometry x="749.8300000000002" y="1714" width="140" height="40" as="geometry" />
        </mxCell>
        <mxCell id="UdkjZhPED4S_4okrrKyf-236" value="" style="endArrow=none;html=1;rounded=0;entryX=0.5;entryY=1;entryDx=0;entryDy=0;exitX=0.07;exitY=0.25;exitDx=0;exitDy=0;exitPerimeter=0;" parent="1" source="UdkjZhPED4S_4okrrKyf-235" target="bPdjGQ_32wZ3Fuaz51Pp-27" edge="1">
          <mxGeometry relative="1" as="geometry">
            <mxPoint x="259.83" y="1270.45" as="sourcePoint" />
            <mxPoint x="159.83" y="1270.45" as="targetPoint" />
          </mxGeometry>
        </mxCell>
        <mxCell id="UdkjZhPED4S_4okrrKyf-237" value="" style="endArrow=none;html=1;rounded=0;entryX=0;entryY=0.5;entryDx=0;entryDy=0;" parent="1" target="UdkjZhPED4S_4okrrKyf-238" edge="1">
          <mxGeometry relative="1" as="geometry">
            <mxPoint x="670" y="500" as="sourcePoint" />
            <mxPoint x="620" y="1460" as="targetPoint" />
            <Array as="points">
              <mxPoint x="670" y="560" />
              <mxPoint x="591" y="560" />
              <mxPoint x="591" y="680" />
              <mxPoint x="80" y="680" />
              <mxPoint x="80" y="2010" />
            </Array>
          </mxGeometry>
        </mxCell>
        <mxCell id="UdkjZhPED4S_4okrrKyf-238" value="attends" style="shape=rhombus;perimeter=rhombusPerimeter;whiteSpace=wrap;html=1;align=center;" parent="1" vertex="1">
          <mxGeometry x="257.54" y="1980" width="120" height="60" as="geometry" />
        </mxCell>
        <mxCell id="UdkjZhPED4S_4okrrKyf-239" value="" style="endArrow=none;html=1;rounded=0;exitX=1;exitY=0.5;exitDx=0;exitDy=0;entryX=0;entryY=0.5;entryDx=0;entryDy=0;shape=link;" parent="1" source="UdkjZhPED4S_4okrrKyf-238" target="UdkjZhPED4S_4okrrKyf-220" edge="1">
          <mxGeometry relative="1" as="geometry">
            <mxPoint x="449.83" y="1520.45" as="sourcePoint" />
            <mxPoint x="450" y="2000" as="targetPoint" />
          </mxGeometry>
        </mxCell>
        <mxCell id="UdkjZhPED4S_4okrrKyf-250" value="couse_name" style="ellipse;whiteSpace=wrap;html=1;align=center;" parent="1" vertex="1">
          <mxGeometry x="1110.17" y="750" width="130" height="40" as="geometry" />
        </mxCell>
        <mxCell id="UdkjZhPED4S_4okrrKyf-251" value="course_description" style="ellipse;whiteSpace=wrap;html=1;align=center;" parent="1" vertex="1">
          <mxGeometry x="1299.83" y="740" width="130" height="40" as="geometry" />
        </mxCell>
        <mxCell id="UdkjZhPED4S_4okrrKyf-254" value="" style="endArrow=none;html=1;rounded=0;exitX=1;exitY=0;exitDx=0;exitDy=0;entryX=0.386;entryY=1.014;entryDx=0;entryDy=0;entryPerimeter=0;" parent="1" source="UdkjZhPED4S_4okrrKyf-34" target="UdkjZhPED4S_4okrrKyf-251" edge="1">
          <mxGeometry relative="1" as="geometry">
            <mxPoint x="1317.5" y="892.87" as="sourcePoint" />
            <mxPoint x="1496.5" y="975.87" as="targetPoint" />
          </mxGeometry>
        </mxCell>
        <mxCell id="UdkjZhPED4S_4okrrKyf-255" value="" style="endArrow=none;html=1;rounded=0;exitX=0;exitY=0;exitDx=0;exitDy=0;" parent="1" source="UdkjZhPED4S_4okrrKyf-34" target="UdkjZhPED4S_4okrrKyf-250" edge="1">
          <mxGeometry relative="1" as="geometry">
            <mxPoint x="1317.5" y="882.87" as="sourcePoint" />
            <mxPoint x="1210" y="770" as="targetPoint" />
          </mxGeometry>
        </mxCell>
        <mxCell id="m46-IYd60HSILahUizfW-3" value="" style="endArrow=none;html=1;rounded=0;exitX=0.435;exitY=0.993;exitDx=0;exitDy=0;exitPerimeter=0;" parent="1" source="m46-IYd60HSILahUizfW-7" target="UdkjZhPED4S_4okrrKyf-187" edge="1">
          <mxGeometry relative="1" as="geometry">
            <mxPoint x="591.83" y="1069" as="sourcePoint" />
            <mxPoint x="535.83" y="1235" as="targetPoint" />
          </mxGeometry>
        </mxCell>
        <mxCell id="m46-IYd60HSILahUizfW-5" value="course_duration" style="ellipse;whiteSpace=wrap;html=1;align=center;" parent="1" vertex="1">
          <mxGeometry x="1355" y="900" width="140" height="40" as="geometry" />
        </mxCell>
        <mxCell id="m46-IYd60HSILahUizfW-6" value="" style="endArrow=none;html=1;rounded=0;exitX=0.5;exitY=0;exitDx=0;exitDy=0;entryX=0.75;entryY=1;entryDx=0;entryDy=0;" parent="1" source="m46-IYd60HSILahUizfW-5" target="UdkjZhPED4S_4okrrKyf-34" edge="1">
          <mxGeometry relative="1" as="geometry">
            <mxPoint x="645" y="1140" as="sourcePoint" />
            <mxPoint x="760" y="1260" as="targetPoint" />
          </mxGeometry>
        </mxCell>
        <mxCell id="m46-IYd60HSILahUizfW-7" value="payment_id" style="ellipse;whiteSpace=wrap;html=1;align=center;fontStyle=4" parent="1" vertex="1">
          <mxGeometry x="765.1700000000001" y="975" width="140" height="40" as="geometry" />
        </mxCell>
        <mxCell id="m46-IYd60HSILahUizfW-26" value="&lt;u&gt;course_shedule_id&lt;br&gt;&lt;br&gt;&lt;/u&gt;" style="ellipse;whiteSpace=wrap;html=1;" parent="1" vertex="1">
          <mxGeometry x="1220.17" y="2015" width="122.83" height="40" as="geometry" />
        </mxCell>
        <mxCell id="m46-IYd60HSILahUizfW-27" value="" style="endArrow=none;html=1;rounded=0;entryX=0;entryY=0.5;entryDx=0;entryDy=0;" parent="1" source="UdkjZhPED4S_4okrrKyf-220" target="m46-IYd60HSILahUizfW-26" edge="1">
          <mxGeometry width="50" height="50" relative="1" as="geometry">
            <mxPoint x="1210.17" y="2292" as="sourcePoint" />
            <mxPoint x="1260.17" y="2242" as="targetPoint" />
          </mxGeometry>
        </mxCell>
        <mxCell id="m46-IYd60HSILahUizfW-36" value="has" style="shape=rhombus;perimeter=rhombusPerimeter;whiteSpace=wrap;html=1;align=center;" parent="1" vertex="1">
          <mxGeometry x="580.0000000000002" y="1020" width="120" height="60" as="geometry" />
        </mxCell>
        <mxCell id="m46-IYd60HSILahUizfW-39" value="grade" style="ellipse;whiteSpace=wrap;html=1;align=center;" parent="1" vertex="1">
          <mxGeometry x="135.51000000000002" y="1000" width="119.83" height="27.13" as="geometry" />
        </mxCell>
        <mxCell id="m46-IYd60HSILahUizfW-44" value="" style="endArrow=none;html=1;rounded=0;shape=link;entryX=0;entryY=0.5;entryDx=0;entryDy=0;" parent="1" target="m46-IYd60HSILahUizfW-36" edge="1">
          <mxGeometry width="50" height="50" relative="1" as="geometry">
            <mxPoint x="300" y="1300" as="sourcePoint" />
            <mxPoint x="777" y="892.87" as="targetPoint" />
            <Array as="points">
              <mxPoint x="300" y="1050" />
              <mxPoint x="480" y="1050" />
            </Array>
          </mxGeometry>
        </mxCell>
        <mxCell id="m46-IYd60HSILahUizfW-46" value="" style="endArrow=none;html=1;rounded=0;exitX=1;exitY=0.5;exitDx=0;exitDy=0;shape=link;entryX=0.08;entryY=1.06;entryDx=0;entryDy=0;entryPerimeter=0;" parent="1" source="m46-IYd60HSILahUizfW-36" target="UdkjZhPED4S_4okrrKyf-34" edge="1">
          <mxGeometry relative="1" as="geometry">
            <mxPoint x="670" y="1210" as="sourcePoint" />
            <mxPoint x="1280" y="900" as="targetPoint" />
            <Array as="points">
              <mxPoint x="1040" y="1050" />
              <mxPoint x="1040" y="900" />
              <mxPoint x="1228" y="900" />
            </Array>
          </mxGeometry>
        </mxCell>
        <mxCell id="m46-IYd60HSILahUizfW-47" value="" style="resizable=0;html=1;whiteSpace=wrap;align=right;verticalAlign=bottom;" parent="m46-IYd60HSILahUizfW-46" connectable="0" vertex="1">
          <mxGeometry x="1" relative="1" as="geometry" />
        </mxCell>
        <mxCell id="m46-IYd60HSILahUizfW-48" style="edgeStyle=orthogonalEdgeStyle;rounded=0;orthogonalLoop=1;jettySize=auto;html=1;exitX=0.5;exitY=1;exitDx=0;exitDy=0;" parent="1" source="UdkjZhPED4S_4okrrKyf-34" target="UdkjZhPED4S_4okrrKyf-34" edge="1">
          <mxGeometry relative="1" as="geometry" />
        </mxCell>
        <mxCell id="m46-IYd60HSILahUizfW-68" value="&lt;font style=&quot;font-size: 17px;&quot;&gt;&lt;b&gt;m&lt;/b&gt;&lt;/font&gt;" style="text;html=1;align=center;verticalAlign=middle;resizable=0;points=[];autosize=1;strokeColor=none;fillColor=none;" parent="1" vertex="1">
          <mxGeometry x="707" y="1455" width="40" height="30" as="geometry" />
        </mxCell>
        <mxCell id="m46-IYd60HSILahUizfW-74" value="&lt;b style=&quot;&quot;&gt;&lt;font style=&quot;font-size: 19px;&quot;&gt;1&lt;/font&gt;&lt;/b&gt;" style="text;html=1;align=center;verticalAlign=middle;resizable=0;points=[];autosize=1;strokeColor=none;fillColor=none;fontSize=17;" parent="1" vertex="1">
          <mxGeometry x="585" y="1325" width="30" height="40" as="geometry" />
        </mxCell>
        <mxCell id="m46-IYd60HSILahUizfW-76" value="1" style="text;html=1;align=center;verticalAlign=middle;resizable=0;points=[];autosize=1;strokeColor=none;fillColor=none;fontSize=17;fontStyle=1" parent="1" vertex="1">
          <mxGeometry x="1134.83" y="1390.45" width="30" height="30" as="geometry" />
        </mxCell>
        <mxCell id="m46-IYd60HSILahUizfW-78" value="1" style="text;html=1;align=center;verticalAlign=middle;resizable=0;points=[];autosize=1;strokeColor=none;fillColor=none;fontSize=17;fontStyle=1" parent="1" vertex="1">
          <mxGeometry x="1020.17" y="1540" width="30" height="30" as="geometry" />
        </mxCell>
        <mxCell id="m46-IYd60HSILahUizfW-83" value="week_date" style="ellipse;whiteSpace=wrap;html=1;" parent="1" vertex="1">
          <mxGeometry x="1000" y="2044.99" width="120" height="40" as="geometry" />
        </mxCell>
        <mxCell id="m46-IYd60HSILahUizfW-84" value="start_time" style="ellipse;whiteSpace=wrap;html=1;" parent="1" vertex="1">
          <mxGeometry x="990.17" y="1910" width="120" height="40" as="geometry" />
        </mxCell>
        <mxCell id="m46-IYd60HSILahUizfW-85" value="end_time" style="ellipse;whiteSpace=wrap;html=1;" parent="1" vertex="1">
          <mxGeometry x="1140.1700000000003" y="1890" width="140" height="40" as="geometry" />
        </mxCell>
        <mxCell id="zwFhHf1UqDIjWcC-QOfT-5" value="&lt;font style=&quot;font-size: 17px;&quot;&gt;1&lt;/font&gt;" style="text;html=1;align=center;verticalAlign=middle;resizable=0;points=[];autosize=1;strokeColor=none;fillColor=none;fontStyle=1" parent="1" vertex="1">
          <mxGeometry x="1485.17" y="590" width="30" height="30" as="geometry" />
        </mxCell>
        <mxCell id="zwFhHf1UqDIjWcC-QOfT-6" value="&lt;font style=&quot;font-size: 17px;&quot;&gt;m&lt;/font&gt;" style="text;html=1;align=center;verticalAlign=middle;resizable=0;points=[];autosize=1;strokeColor=none;fillColor=none;fontStyle=1" parent="1" vertex="1">
          <mxGeometry x="1420" y="670" width="40" height="30" as="geometry" />
        </mxCell>
        <mxCell id="zwFhHf1UqDIjWcC-QOfT-7" value="&lt;font style=&quot;font-size: 17px;&quot;&gt;1&lt;/font&gt;" style="text;html=1;align=center;verticalAlign=middle;resizable=0;points=[];autosize=1;strokeColor=none;fillColor=none;fontStyle=1" parent="1" vertex="1">
          <mxGeometry x="1225" y="980" width="30" height="30" as="geometry" />
        </mxCell>
        <mxCell id="zwFhHf1UqDIjWcC-QOfT-8" value="&lt;font style=&quot;font-size: 17px;&quot;&gt;m&lt;/font&gt;" style="text;html=1;align=center;verticalAlign=middle;resizable=0;points=[];autosize=1;strokeColor=none;fillColor=none;fontStyle=1" parent="1" vertex="1">
          <mxGeometry x="1215.17" y="1065" width="40" height="30" as="geometry" />
        </mxCell>
        <mxCell id="zwFhHf1UqDIjWcC-QOfT-10" value="time" style="ellipse;whiteSpace=wrap;html=1;align=center;" parent="1" vertex="1">
          <mxGeometry x="377" y="2030" width="130" height="40" as="geometry" />
        </mxCell>
        <mxCell id="zwFhHf1UqDIjWcC-QOfT-11" value="attend_date" style="ellipse;whiteSpace=wrap;html=1;align=center;" parent="1" vertex="1">
          <mxGeometry x="157.00000000000003" y="2044.99" width="130" height="40" as="geometry" />
        </mxCell>
        <mxCell id="zwFhHf1UqDIjWcC-QOfT-14" value="" style="endArrow=none;html=1;rounded=0;exitX=0.701;exitY=-0.007;exitDx=0;exitDy=0;exitPerimeter=0;entryX=0.5;entryY=1;entryDx=0;entryDy=0;" parent="1" source="zwFhHf1UqDIjWcC-QOfT-11" target="UdkjZhPED4S_4okrrKyf-238" edge="1">
          <mxGeometry width="50" height="50" relative="1" as="geometry">
            <mxPoint x="619.6600000000001" y="1920" as="sourcePoint" />
            <mxPoint x="669.6600000000001" y="1870" as="targetPoint" />
          </mxGeometry>
        </mxCell>
        <mxCell id="zwFhHf1UqDIjWcC-QOfT-15" value="" style="endArrow=none;html=1;rounded=0;exitX=0.5;exitY=1;exitDx=0;exitDy=0;" parent="1" source="UdkjZhPED4S_4okrrKyf-238" target="zwFhHf1UqDIjWcC-QOfT-10" edge="1">
          <mxGeometry width="50" height="50" relative="1" as="geometry">
            <mxPoint x="619.6600000000001" y="1920" as="sourcePoint" />
            <mxPoint x="669.6600000000001" y="1870" as="targetPoint" />
          </mxGeometry>
        </mxCell>
        <mxCell id="zwFhHf1UqDIjWcC-QOfT-16" value="" style="endArrow=none;html=1;rounded=0;exitX=0.75;exitY=0;exitDx=0;exitDy=0;" parent="1" source="UdkjZhPED4S_4okrrKyf-220" target="m46-IYd60HSILahUizfW-85" edge="1">
          <mxGeometry width="50" height="50" relative="1" as="geometry">
            <mxPoint x="1170.17" y="1912" as="sourcePoint" />
            <mxPoint x="1220.17" y="1862" as="targetPoint" />
          </mxGeometry>
        </mxCell>
        <mxCell id="zwFhHf1UqDIjWcC-QOfT-17" value="" style="endArrow=none;html=1;rounded=0;exitX=0.5;exitY=1;exitDx=0;exitDy=0;entryX=0.25;entryY=0;entryDx=0;entryDy=0;" parent="1" source="m46-IYd60HSILahUizfW-84" target="UdkjZhPED4S_4okrrKyf-220" edge="1">
          <mxGeometry width="50" height="50" relative="1" as="geometry">
            <mxPoint x="1170.17" y="1912" as="sourcePoint" />
            <mxPoint x="1220.17" y="1862" as="targetPoint" />
          </mxGeometry>
        </mxCell>
        <mxCell id="zwFhHf1UqDIjWcC-QOfT-18" value="" style="endArrow=none;html=1;rounded=0;entryX=0.344;entryY=0.957;entryDx=0;entryDy=0;entryPerimeter=0;" parent="1" source="m46-IYd60HSILahUizfW-83" target="UdkjZhPED4S_4okrrKyf-220" edge="1">
          <mxGeometry width="50" height="50" relative="1" as="geometry">
            <mxPoint x="1000.1700000000001" y="2142" as="sourcePoint" />
            <mxPoint x="1220.17" y="1862" as="targetPoint" />
          </mxGeometry>
        </mxCell>
        <mxCell id="CV3Gjt5NdCmsNTR0PnVh-3" value="register" style="shape=rhombus;perimeter=rhombusPerimeter;whiteSpace=wrap;html=1;align=center;" parent="1" vertex="1">
          <mxGeometry x="1017.59" y="557.5" width="120" height="60" as="geometry" />
        </mxCell>
        <mxCell id="CV3Gjt5NdCmsNTR0PnVh-4" value="" style="endArrow=none;html=1;rounded=0;entryX=0;entryY=0.5;entryDx=0;entryDy=0;shape=link;exitX=0.905;exitY=1.067;exitDx=0;exitDy=0;exitPerimeter=0;" parent="1" source="UdkjZhPED4S_4okrrKyf-86" target="CV3Gjt5NdCmsNTR0PnVh-3" edge="1">
          <mxGeometry width="50" height="50" relative="1" as="geometry">
            <mxPoint x="700" y="510" as="sourcePoint" />
            <mxPoint x="748.17" y="645" as="targetPoint" />
            <Array as="points">
              <mxPoint x="810" y="590" />
              <mxPoint x="920" y="590" />
            </Array>
          </mxGeometry>
        </mxCell>
        <mxCell id="CV3Gjt5NdCmsNTR0PnVh-5" value="" style="endArrow=none;html=1;rounded=0;exitX=0.5;exitY=1;exitDx=0;exitDy=0;entryX=0;entryY=0.25;entryDx=0;entryDy=0;" parent="1" source="CV3Gjt5NdCmsNTR0PnVh-3" target="UdkjZhPED4S_4okrrKyf-34" edge="1">
          <mxGeometry width="50" height="50" relative="1" as="geometry">
            <mxPoint x="1040" y="620" as="sourcePoint" />
            <mxPoint x="1290" y="853" as="targetPoint" />
            <Array as="points">
              <mxPoint x="1080" y="720" />
              <mxPoint x="1080" y="820" />
            </Array>
          </mxGeometry>
        </mxCell>
        <mxCell id="CV3Gjt5NdCmsNTR0PnVh-8" value="&lt;font style=&quot;font-size: 17px;&quot;&gt;1&lt;/font&gt;" style="text;html=1;align=center;verticalAlign=middle;resizable=0;points=[];autosize=1;strokeColor=none;fillColor=none;fontStyle=1" parent="1" vertex="1">
          <mxGeometry x="687.17" y="760" width="30" height="30" as="geometry" />
        </mxCell>
        <mxCell id="CV3Gjt5NdCmsNTR0PnVh-9" value="&lt;font style=&quot;font-size: 17px;&quot;&gt;m&lt;/font&gt;" style="text;html=1;align=center;verticalAlign=middle;resizable=0;points=[];autosize=1;strokeColor=none;fillColor=none;fontStyle=1" parent="1" vertex="1">
          <mxGeometry x="217.54000000000002" y="860" width="40" height="30" as="geometry" />
        </mxCell>
        <mxCell id="CV3Gjt5NdCmsNTR0PnVh-10" value="&lt;font style=&quot;font-size: 17px;&quot;&gt;m&lt;/font&gt;" style="text;html=1;align=center;verticalAlign=middle;resizable=0;points=[];autosize=1;strokeColor=none;fillColor=none;fontStyle=1" parent="1" vertex="1">
          <mxGeometry x="177.09" y="1980" width="40" height="30" as="geometry" />
        </mxCell>
        <mxCell id="CV3Gjt5NdCmsNTR0PnVh-11" value="&lt;font style=&quot;font-size: 17px;&quot;&gt;n&lt;/font&gt;" style="text;html=1;align=center;verticalAlign=middle;resizable=0;points=[];autosize=1;strokeColor=none;fillColor=none;fontStyle=1" parent="1" vertex="1">
          <mxGeometry x="225.34" y="1050" width="30" height="30" as="geometry" />
        </mxCell>
        <mxCell id="CV3Gjt5NdCmsNTR0PnVh-12" value="&lt;font style=&quot;font-size: 17px;&quot;&gt;&lt;b&gt;n&lt;/b&gt;&lt;/font&gt;" style="text;html=1;align=center;verticalAlign=middle;resizable=0;points=[];autosize=1;strokeColor=none;fillColor=none;" parent="1" vertex="1">
          <mxGeometry x="385" y="1970" width="30" height="30" as="geometry" />
        </mxCell>
        <mxCell id="bPdjGQ_32wZ3Fuaz51Pp-6" value="" style="endArrow=none;html=1;rounded=0;exitX=0;exitY=0.5;exitDx=0;exitDy=0;entryX=0.401;entryY=0.111;entryDx=0;entryDy=0;entryPerimeter=0;" parent="1" source="UdkjZhPED4S_4okrrKyf-199" target="m46-IYd60HSILahUizfW-39" edge="1">
          <mxGeometry width="50" height="50" relative="1" as="geometry">
            <mxPoint x="400" y="800" as="sourcePoint" />
            <mxPoint x="450" y="750" as="targetPoint" />
          </mxGeometry>
        </mxCell>
        <mxCell id="bPdjGQ_32wZ3Fuaz51Pp-12" value="" style="resizable=0;html=1;whiteSpace=wrap;align=right;verticalAlign=bottom;" parent="1" connectable="0" vertex="1">
          <mxGeometry x="1632" y="2044.9866666666667" as="geometry" />
        </mxCell>
        <mxCell id="bPdjGQ_32wZ3Fuaz51Pp-27" value="ExamSchedule" style="whiteSpace=wrap;html=1;align=center;" parent="1" vertex="1">
          <mxGeometry x="624.83" y="1583.45" width="135.17" height="40" as="geometry" />
        </mxCell>
        <mxCell id="bPdjGQ_32wZ3Fuaz51Pp-28" value="exam_name" style="ellipse;whiteSpace=wrap;html=1;align=center;" parent="1" vertex="1">
          <mxGeometry x="576.5" y="1465" width="127" height="40" as="geometry" />
        </mxCell>
        <mxCell id="bPdjGQ_32wZ3Fuaz51Pp-29" value="exam_shedule_id" style="ellipse;whiteSpace=wrap;html=1;align=center;fontStyle=4" parent="1" vertex="1">
          <mxGeometry x="427" y="1500" width="140" height="40" as="geometry" />
        </mxCell>
        <mxCell id="bPdjGQ_32wZ3Fuaz51Pp-33" value="" style="endArrow=none;html=1;rounded=0;shape=link;exitX=0;exitY=0.25;exitDx=0;exitDy=0;entryX=0;entryY=0.5;entryDx=0;entryDy=0;" parent="1" source="UdkjZhPED4S_4okrrKyf-87" target="bPdjGQ_32wZ3Fuaz51Pp-34" edge="1">
          <mxGeometry relative="1" as="geometry">
            <mxPoint x="230" y="1270" as="sourcePoint" />
            <mxPoint x="110" y="1770" as="targetPoint" />
            <Array as="points">
              <mxPoint x="140" y="1310" />
              <mxPoint x="140" y="1590" />
            </Array>
          </mxGeometry>
        </mxCell>
        <mxCell id="bPdjGQ_32wZ3Fuaz51Pp-34" value="gets" style="shape=rhombus;perimeter=rhombusPerimeter;whiteSpace=wrap;html=1;align=center;" parent="1" vertex="1">
          <mxGeometry x="222.09000000000006" y="1560" width="120" height="60" as="geometry" />
        </mxCell>
        <mxCell id="bPdjGQ_32wZ3Fuaz51Pp-35" value="" style="endArrow=none;html=1;rounded=0;exitX=1;exitY=0.5;exitDx=0;exitDy=0;shape=link;entryX=0.03;entryY=0.086;entryDx=0;entryDy=0;entryPerimeter=0;" parent="1" source="bPdjGQ_32wZ3Fuaz51Pp-34" target="bPdjGQ_32wZ3Fuaz51Pp-27" edge="1">
          <mxGeometry relative="1" as="geometry">
            <mxPoint x="465" y="1405" as="sourcePoint" />
            <mxPoint x="540" y="1633" as="targetPoint" />
            <Array as="points" />
          </mxGeometry>
        </mxCell>
        <mxCell id="bPdjGQ_32wZ3Fuaz51Pp-39" value="&lt;font style=&quot;font-size: 17px;&quot;&gt;&lt;b&gt;m&lt;/b&gt;&lt;/font&gt;" style="text;html=1;align=center;verticalAlign=middle;resizable=0;points=[];autosize=1;strokeColor=none;fillColor=none;" parent="1" vertex="1">
          <mxGeometry x="352.54" y="1550" width="40" height="30" as="geometry" />
        </mxCell>
        <mxCell id="bPdjGQ_32wZ3Fuaz51Pp-40" value="" style="endArrow=none;html=1;rounded=0;entryX=0.395;entryY=1;entryDx=0;entryDy=0;entryPerimeter=0;exitX=0.5;exitY=0;exitDx=0;exitDy=0;" parent="1" source="bPdjGQ_32wZ3Fuaz51Pp-27" target="bPdjGQ_32wZ3Fuaz51Pp-28" edge="1">
          <mxGeometry width="50" height="50" relative="1" as="geometry">
            <mxPoint x="660" y="1580" as="sourcePoint" />
            <mxPoint x="720" y="1580" as="targetPoint" />
          </mxGeometry>
        </mxCell>
        <mxCell id="bPdjGQ_32wZ3Fuaz51Pp-41" value="" style="endArrow=none;html=1;rounded=0;exitX=0.25;exitY=0;exitDx=0;exitDy=0;entryX=1;entryY=1;entryDx=0;entryDy=0;" parent="1" source="bPdjGQ_32wZ3Fuaz51Pp-27" target="bPdjGQ_32wZ3Fuaz51Pp-29" edge="1">
          <mxGeometry width="50" height="50" relative="1" as="geometry">
            <mxPoint x="670" y="1630" as="sourcePoint" />
            <mxPoint x="720" y="1580" as="targetPoint" />
          </mxGeometry>
        </mxCell>
        <mxCell id="bPdjGQ_32wZ3Fuaz51Pp-47" value="&lt;font style=&quot;font-size: 17px;&quot;&gt;m&lt;/font&gt;" style="text;html=1;align=center;verticalAlign=middle;resizable=0;points=[];autosize=1;strokeColor=none;fillColor=none;fontStyle=1" parent="1" vertex="1">
          <mxGeometry x="814.8299999999999" y="540" width="40" height="30" as="geometry" />
        </mxCell>
        <mxCell id="bPdjGQ_32wZ3Fuaz51Pp-48" value="&lt;font style=&quot;font-size: 17px;&quot;&gt;n&lt;/font&gt;" style="text;html=1;align=center;verticalAlign=middle;resizable=0;points=[];autosize=1;strokeColor=none;fillColor=none;fontStyle=1" parent="1" vertex="1">
          <mxGeometry x="1040.17" y="710" width="30" height="30" as="geometry" />
        </mxCell>
        <mxCell id="bPdjGQ_32wZ3Fuaz51Pp-49" value="register_date" style="ellipse;whiteSpace=wrap;html=1;align=center;" parent="1" vertex="1">
          <mxGeometry x="1188.27" y="445" width="100" height="40" as="geometry" />
        </mxCell>
        <mxCell id="bPdjGQ_32wZ3Fuaz51Pp-50" value="" style="endArrow=none;html=1;rounded=0;exitX=1;exitY=0.5;exitDx=0;exitDy=0;" parent="1" source="CV3Gjt5NdCmsNTR0PnVh-3" target="bPdjGQ_32wZ3Fuaz51Pp-49" edge="1">
          <mxGeometry width="50" height="50" relative="1" as="geometry">
            <mxPoint x="910" y="630" as="sourcePoint" />
            <mxPoint x="920" y="670" as="targetPoint" />
          </mxGeometry>
        </mxCell>
        <mxCell id="bPdjGQ_32wZ3Fuaz51Pp-58" value="" style="endArrow=none;html=1;rounded=0;" parent="1" source="UdkjZhPED4S_4okrrKyf-79" target="Ux8aAjsgrgjQNakn-wIU-1" edge="1">
          <mxGeometry width="50" height="50" relative="1" as="geometry">
            <mxPoint x="650" y="420" as="sourcePoint" />
            <mxPoint x="320.09000000000015" y="398.29999999999995" as="targetPoint" />
          </mxGeometry>
        </mxCell>
        <mxCell id="bPdjGQ_32wZ3Fuaz51Pp-94" value="&lt;font style=&quot;font-size: 17px;&quot;&gt;m&lt;/font&gt;" style="text;html=1;align=center;verticalAlign=middle;resizable=0;points=[];autosize=1;strokeColor=none;fillColor=none;fontStyle=1" parent="1" vertex="1">
          <mxGeometry x="747.5" y="845" width="40" height="30" as="geometry" />
        </mxCell>
        <mxCell id="bPdjGQ_32wZ3Fuaz51Pp-120" value="" style="endArrow=none;html=1;rounded=0;entryX=0;entryY=0.5;entryDx=0;entryDy=0;exitX=0.446;exitY=1.063;exitDx=0;exitDy=0;exitPerimeter=0;" parent="1" source="UdkjZhPED4S_4okrrKyf-86" target="ghqXPNyZ9U7g0pVwa6VU-49" edge="1">
          <mxGeometry relative="1" as="geometry">
            <mxPoint x="620" y="510" as="sourcePoint" />
            <mxPoint x="750" y="1910" as="targetPoint" />
            <Array as="points">
              <mxPoint x="700" y="570" />
              <mxPoint x="620" y="570" />
              <mxPoint x="620" y="720" />
              <mxPoint x="100" y="720" />
              <mxPoint x="100" y="1850" />
            </Array>
          </mxGeometry>
        </mxCell>
        <mxCell id="bPdjGQ_32wZ3Fuaz51Pp-124" value="&lt;font style=&quot;font-size: 17px;&quot;&gt;1&lt;/font&gt;" style="text;html=1;align=center;verticalAlign=middle;resizable=0;points=[];autosize=1;strokeColor=none;fillColor=none;fontStyle=1" parent="1" vertex="1">
          <mxGeometry x="182.09" y="1553.45" width="30" height="30" as="geometry" />
        </mxCell>
        <mxCell id="bPdjGQ_32wZ3Fuaz51Pp-125" value="&lt;font style=&quot;font-size: 17px;&quot;&gt;m&lt;/font&gt;" style="text;html=1;align=center;verticalAlign=middle;resizable=0;points=[];autosize=1;strokeColor=none;fillColor=none;fontStyle=1" parent="1" vertex="1">
          <mxGeometry x="960.17" y="1580" width="40" height="30" as="geometry" />
        </mxCell>
        <mxCell id="bPdjGQ_32wZ3Fuaz51Pp-126" value="&lt;font style=&quot;font-size: 17px;&quot;&gt;m&lt;/font&gt;" style="text;html=1;align=center;verticalAlign=middle;resizable=0;points=[];autosize=1;strokeColor=none;fillColor=none;fontStyle=1" parent="1" vertex="1">
          <mxGeometry x="357.54" y="1850" width="40" height="30" as="geometry" />
        </mxCell>
        <mxCell id="Ux8aAjsgrgjQNakn-wIU-1" value="address" style="ellipse;whiteSpace=wrap;html=1;align=center;" parent="1" vertex="1">
          <mxGeometry x="440" y="200" width="130" height="40" as="geometry" />
        </mxCell>
        <mxCell id="Ux8aAjsgrgjQNakn-wIU-3" value="fname" style="ellipse;whiteSpace=wrap;html=1;align=center;" parent="1" vertex="1">
          <mxGeometry x="1235" y="210" width="100" height="40" as="geometry" />
        </mxCell>
        <mxCell id="Ux8aAjsgrgjQNakn-wIU-4" value="" style="endArrow=none;html=1;rounded=0;" parent="1" source="w-RnadfowD6wGREnBTG5-8" target="Ux8aAjsgrgjQNakn-wIU-3" edge="1">
          <mxGeometry width="50" height="50" relative="1" as="geometry">
            <mxPoint x="770" y="370" as="sourcePoint" />
            <mxPoint x="820" y="320" as="targetPoint" />
          </mxGeometry>
        </mxCell>
        <mxCell id="UdkjZhPED4S_4okrrKyf-79" value="User" style="whiteSpace=wrap;html=1;align=center;" parent="1" vertex="1">
          <mxGeometry x="722.17" y="170" width="100" height="40" as="geometry" />
        </mxCell>
        <mxCell id="Ux8aAjsgrgjQNakn-wIU-7" value="" style="endArrow=none;html=1;rounded=0;entryX=0.139;entryY=-0.066;entryDx=0;entryDy=0;entryPerimeter=0;" parent="1" source="w-RnadfowD6wGREnBTG5-3" target="UdkjZhPED4S_4okrrKyf-79" edge="1">
          <mxGeometry width="50" height="50" relative="1" as="geometry">
            <mxPoint x="451.52031290617833" y="187.4586669509174" as="sourcePoint" />
            <mxPoint x="820" y="320" as="targetPoint" />
            <Array as="points">
              <mxPoint x="736" y="170" />
            </Array>
          </mxGeometry>
        </mxCell>
        <mxCell id="Ux8aAjsgrgjQNakn-wIU-8" value="fianal _qualifiication" style="ellipse;whiteSpace=wrap;html=1;align=center;" parent="1" vertex="1">
          <mxGeometry x="406.91999999999996" y="360" width="155.08" height="40" as="geometry" />
        </mxCell>
        <mxCell id="Ux8aAjsgrgjQNakn-wIU-9" value="" style="endArrow=none;html=1;rounded=0;entryX=0.25;entryY=0;entryDx=0;entryDy=0;exitX=0.584;exitY=1.105;exitDx=0;exitDy=0;exitPerimeter=0;" parent="1" source="Ux8aAjsgrgjQNakn-wIU-8" target="UdkjZhPED4S_4okrrKyf-86" edge="1">
          <mxGeometry width="50" height="50" relative="1" as="geometry">
            <mxPoint x="540.17" y="488" as="sourcePoint" />
            <mxPoint x="910.17" y="535" as="targetPoint" />
          </mxGeometry>
        </mxCell>
        <mxCell id="Ux8aAjsgrgjQNakn-wIU-13" value="description" style="ellipse;whiteSpace=wrap;html=1;align=center;" parent="1" vertex="1">
          <mxGeometry x="281.99999999999994" y="507.5" width="100" height="40" as="geometry" />
        </mxCell>
        <mxCell id="Ux8aAjsgrgjQNakn-wIU-15" value="" style="endArrow=none;html=1;rounded=0;exitX=1;exitY=0.5;exitDx=0;exitDy=0;entryX=0.5;entryY=0;entryDx=0;entryDy=0;" parent="1" source="UdkjZhPED4S_4okrrKyf-120" target="Ux8aAjsgrgjQNakn-wIU-13" edge="1">
          <mxGeometry width="50" height="50" relative="1" as="geometry">
            <mxPoint x="200.17" y="545" as="sourcePoint" />
            <mxPoint x="610.17" y="495" as="targetPoint" />
          </mxGeometry>
        </mxCell>
        <mxCell id="OADxER0d2Pgf3RYVHcGn-1" value="course_fee" style="ellipse;whiteSpace=wrap;html=1;align=center;fontStyle=0;" parent="1" vertex="1">
          <mxGeometry x="1275.17" y="945" width="100" height="40" as="geometry" />
        </mxCell>
        <mxCell id="OADxER0d2Pgf3RYVHcGn-2" value="" style="endArrow=none;html=1;rounded=0;entryX=0.5;entryY=0;entryDx=0;entryDy=0;exitX=0.5;exitY=1;exitDx=0;exitDy=0;" parent="1" source="UdkjZhPED4S_4okrrKyf-34" target="OADxER0d2Pgf3RYVHcGn-1" edge="1">
          <mxGeometry width="50" height="50" relative="1" as="geometry">
            <mxPoint x="980" y="1060" as="sourcePoint" />
            <mxPoint x="1030" y="1010" as="targetPoint" />
          </mxGeometry>
        </mxCell>
        <mxCell id="anNYiqL3nOpm_OGNbAXU-3" value="course_type" style="ellipse;whiteSpace=wrap;html=1;align=center;" parent="1" vertex="1">
          <mxGeometry x="1377" y="790" width="118" height="40" as="geometry" />
        </mxCell>
        <mxCell id="anNYiqL3nOpm_OGNbAXU-4" value="" style="endArrow=none;html=1;rounded=0;exitX=1;exitY=0.5;exitDx=0;exitDy=0;" parent="1" source="UdkjZhPED4S_4okrrKyf-34" target="anNYiqL3nOpm_OGNbAXU-3" edge="1">
          <mxGeometry relative="1" as="geometry">
            <mxPoint x="1373" y="1278" as="sourcePoint" />
            <mxPoint x="1426" y="1250" as="targetPoint" />
          </mxGeometry>
        </mxCell>
        <mxCell id="ghqXPNyZ9U7g0pVwa6VU-1" value="dob" style="ellipse;whiteSpace=wrap;html=1;align=center;" parent="1" vertex="1">
          <mxGeometry x="927.67" y="260" width="118" height="40" as="geometry" />
        </mxCell>
        <mxCell id="ghqXPNyZ9U7g0pVwa6VU-2" value="" style="endArrow=none;html=1;rounded=0;exitX=0.658;exitY=1;exitDx=0;exitDy=0;exitPerimeter=0;entryX=0.367;entryY=-0.083;entryDx=0;entryDy=0;entryPerimeter=0;" parent="1" source="UdkjZhPED4S_4okrrKyf-79" target="ghqXPNyZ9U7g0pVwa6VU-1" edge="1">
          <mxGeometry width="50" height="50" relative="1" as="geometry">
            <mxPoint x="770" y="410" as="sourcePoint" />
            <mxPoint x="820" y="360" as="targetPoint" />
          </mxGeometry>
        </mxCell>
        <mxCell id="ghqXPNyZ9U7g0pVwa6VU-4" value="" style="endArrow=none;html=1;rounded=0;exitX=0.5;exitY=0;exitDx=0;exitDy=0;shape=link;entryX=0;entryY=0.75;entryDx=0;entryDy=0;" parent="1" source="ghqXPNyZ9U7g0pVwa6VU-5" target="UdkjZhPED4S_4okrrKyf-86" edge="1">
          <mxGeometry width="50" height="50" relative="1" as="geometry">
            <mxPoint x="1580" y="130" as="sourcePoint" />
            <mxPoint x="560" y="500" as="targetPoint" />
            <Array as="points">
              <mxPoint x="1565" y="20" />
              <mxPoint x="40" y="20" />
              <mxPoint x="40" y="560" />
              <mxPoint x="480" y="560" />
              <mxPoint x="480" y="500" />
            </Array>
          </mxGeometry>
        </mxCell>
        <mxCell id="ghqXPNyZ9U7g0pVwa6VU-5" value="has" style="shape=rhombus;perimeter=rhombusPerimeter;whiteSpace=wrap;html=1;align=center;" parent="1" vertex="1">
          <mxGeometry x="1505" y="140" width="120" height="60" as="geometry" />
        </mxCell>
        <mxCell id="ghqXPNyZ9U7g0pVwa6VU-6" value="" style="endArrow=none;html=1;rounded=0;entryX=0.5;entryY=1;entryDx=0;entryDy=0;" parent="1" target="ghqXPNyZ9U7g0pVwa6VU-5" edge="1">
          <mxGeometry width="50" height="50" relative="1" as="geometry">
            <mxPoint x="1310" y="1350" as="sourcePoint" />
            <mxPoint x="1590" y="240" as="targetPoint" />
            <Array as="points">
              <mxPoint x="1310" y="1150" />
              <mxPoint x="1560" y="1150" />
            </Array>
          </mxGeometry>
        </mxCell>
        <mxCell id="ghqXPNyZ9U7g0pVwa6VU-8" value="&lt;font style=&quot;font-size: 17px;&quot;&gt;n&lt;/font&gt;" style="text;html=1;align=center;verticalAlign=middle;resizable=0;points=[];autosize=1;strokeColor=none;fillColor=none;fontStyle=1" parent="1" vertex="1">
          <mxGeometry x="1532" y="85" width="30" height="30" as="geometry" />
        </mxCell>
        <mxCell id="ghqXPNyZ9U7g0pVwa6VU-9" value="&lt;font style=&quot;font-size: 17px;&quot;&gt;m&lt;/font&gt;" style="text;html=1;align=center;verticalAlign=middle;resizable=0;points=[];autosize=1;strokeColor=none;fillColor=none;fontStyle=1" parent="1" vertex="1">
          <mxGeometry x="1522" y="225" width="40" height="30" as="geometry" />
        </mxCell>
        <mxCell id="ghqXPNyZ9U7g0pVwa6VU-11" value="" style="endArrow=none;html=1;rounded=0;entryX=0.5;entryY=1;entryDx=0;entryDy=0;shape=link;" parent="1" target="UdkjZhPED4S_4okrrKyf-208" edge="1">
          <mxGeometry width="50" height="50" relative="1" as="geometry">
            <mxPoint x="683" y="930" as="sourcePoint" />
            <mxPoint x="990" y="980" as="targetPoint" />
          </mxGeometry>
        </mxCell>
        <mxCell id="ghqXPNyZ9U7g0pVwa6VU-12" value="&lt;span style=&quot;font-size: 17px;&quot;&gt;m&lt;/span&gt;" style="text;html=1;align=center;verticalAlign=middle;resizable=0;points=[];autosize=1;strokeColor=none;fillColor=none;fontStyle=1" parent="1" vertex="1">
          <mxGeometry x="682.17" y="880" width="40" height="30" as="geometry" />
        </mxCell>
        <mxCell id="ghqXPNyZ9U7g0pVwa6VU-14" value="" style="endArrow=none;html=1;rounded=0;entryX=0;entryY=0.75;entryDx=0;entryDy=0;entryPerimeter=0;shape=link;" parent="1" target="UdkjZhPED4S_4okrrKyf-34" edge="1">
          <mxGeometry width="50" height="50" relative="1" as="geometry">
            <mxPoint x="740" y="840" as="sourcePoint" />
            <mxPoint x="990" y="1010" as="targetPoint" />
            <Array as="points">
              <mxPoint x="955" y="840" />
            </Array>
          </mxGeometry>
        </mxCell>
        <mxCell id="ghqXPNyZ9U7g0pVwa6VU-24" value="" style="endArrow=none;html=1;rounded=0;exitX=1;exitY=0.5;exitDx=0;exitDy=0;entryX=1;entryY=0.5;entryDx=0;entryDy=0;fillColor=#f8cecc;strokeColor=#0d0d0d;shape=link;" parent="1" source="ghqXPNyZ9U7g0pVwa6VU-25" target="pFeriK06zDPfB2XJO4WJ-10" edge="1">
          <mxGeometry width="50" height="50" relative="1" as="geometry">
            <mxPoint x="1020" y="1180" as="sourcePoint" />
            <mxPoint x="720" y="1090" as="targetPoint" />
            <Array as="points">
              <mxPoint x="960" y="1370" />
              <mxPoint x="960" y="1210" />
            </Array>
          </mxGeometry>
        </mxCell>
        <mxCell id="ghqXPNyZ9U7g0pVwa6VU-25" value="pays for" style="shape=rhombus;perimeter=rhombusPerimeter;whiteSpace=wrap;html=1;align=center;" parent="1" vertex="1">
          <mxGeometry x="657" y="1340.45" width="120" height="60" as="geometry" />
        </mxCell>
        <mxCell id="ghqXPNyZ9U7g0pVwa6VU-26" value="" style="endArrow=none;html=1;rounded=0;entryX=0.5;entryY=1;entryDx=0;entryDy=0;fillColor=#f8cecc;strokeColor=#0d0d0d;fontStyle=1;exitX=0.67;exitY=0.018;exitDx=0;exitDy=0;exitPerimeter=0;" parent="1" source="bPdjGQ_32wZ3Fuaz51Pp-27" target="ghqXPNyZ9U7g0pVwa6VU-25" edge="1">
          <mxGeometry width="50" height="50" relative="1" as="geometry">
            <mxPoint x="650" y="1650" as="sourcePoint" />
            <mxPoint x="917" y="1480" as="targetPoint" />
            <Array as="points" />
          </mxGeometry>
        </mxCell>
        <mxCell id="ghqXPNyZ9U7g0pVwa6VU-41" value="&lt;font style=&quot;font-size: 17px;&quot;&gt;&lt;b&gt;1&lt;/b&gt;&lt;/font&gt;" style="text;html=1;align=center;verticalAlign=middle;resizable=0;points=[];autosize=1;strokeColor=none;fillColor=none;" parent="1" vertex="1">
          <mxGeometry x="712" y="1025" width="30" height="30" as="geometry" />
        </mxCell>
        <mxCell id="ghqXPNyZ9U7g0pVwa6VU-42" value="&lt;font style=&quot;font-size: 17px;&quot;&gt;&lt;b&gt;m&lt;/b&gt;&lt;/font&gt;" style="text;html=1;align=center;verticalAlign=middle;resizable=0;points=[];autosize=1;strokeColor=none;fillColor=none;" parent="1" vertex="1">
          <mxGeometry x="799.8299999999999" y="1345" width="40" height="30" as="geometry" />
        </mxCell>
        <mxCell id="ghqXPNyZ9U7g0pVwa6VU-45" value="&lt;b style=&quot;&quot;&gt;&lt;font style=&quot;font-size: 19px;&quot;&gt;m&lt;/font&gt;&lt;/b&gt;" style="text;html=1;align=center;verticalAlign=middle;resizable=0;points=[];autosize=1;strokeColor=none;fillColor=none;fontSize=17;" parent="1" vertex="1">
          <mxGeometry x="530" y="1015" width="40" height="40" as="geometry" />
        </mxCell>
        <mxCell id="ghqXPNyZ9U7g0pVwa6VU-46" value="" style="endArrow=none;html=1;rounded=0;entryX=0;entryY=0.25;entryDx=0;entryDy=0;exitX=0.5;exitY=0;exitDx=0;exitDy=0;shape=link;" parent="1" source="ghqXPNyZ9U7g0pVwa6VU-47" target="UdkjZhPED4S_4okrrKyf-175" edge="1">
          <mxGeometry width="50" height="50" relative="1" as="geometry">
            <mxPoint x="630" y="1490" as="sourcePoint" />
            <mxPoint x="680" y="1440" as="targetPoint" />
            <Array as="points">
              <mxPoint x="1060" y="1350" />
            </Array>
          </mxGeometry>
        </mxCell>
        <mxCell id="ghqXPNyZ9U7g0pVwa6VU-47" value="Schedule for" style="shape=rhombus;perimeter=rhombusPerimeter;whiteSpace=wrap;html=1;align=center;" parent="1" vertex="1">
          <mxGeometry x="1000.1700000000001" y="1583.45" width="120" height="60" as="geometry" />
        </mxCell>
        <mxCell id="ghqXPNyZ9U7g0pVwa6VU-48" value="" style="endArrow=none;html=1;rounded=0;entryX=0;entryY=0.5;entryDx=0;entryDy=0;exitX=1;exitY=0.75;exitDx=0;exitDy=0;shape=link;" parent="1" source="bPdjGQ_32wZ3Fuaz51Pp-27" target="ghqXPNyZ9U7g0pVwa6VU-47" edge="1">
          <mxGeometry width="50" height="50" relative="1" as="geometry">
            <mxPoint x="640" y="1650" as="sourcePoint" />
            <mxPoint x="530" y="1330" as="targetPoint" />
          </mxGeometry>
        </mxCell>
        <mxCell id="ghqXPNyZ9U7g0pVwa6VU-49" value="Can Send" style="shape=rhombus;perimeter=rhombusPerimeter;whiteSpace=wrap;html=1;align=center;" parent="1" vertex="1">
          <mxGeometry x="237.54000000000005" y="1820" width="120" height="60" as="geometry" />
        </mxCell>
        <mxCell id="ghqXPNyZ9U7g0pVwa6VU-50" value="exam_type" style="ellipse;whiteSpace=wrap;html=1;align=center;" parent="1" vertex="1">
          <mxGeometry x="799.8299999999999" y="1475" width="130" height="40" as="geometry" />
        </mxCell>
        <mxCell id="ghqXPNyZ9U7g0pVwa6VU-51" value="" style="endArrow=none;html=1;rounded=0;exitX=0.884;exitY=0.065;exitDx=0;exitDy=0;entryX=0;entryY=1;entryDx=0;entryDy=0;exitPerimeter=0;" parent="1" source="bPdjGQ_32wZ3Fuaz51Pp-27" target="ghqXPNyZ9U7g0pVwa6VU-50" edge="1">
          <mxGeometry width="50" height="50" relative="1" as="geometry">
            <mxPoint x="880" y="1310" as="sourcePoint" />
            <mxPoint x="930" y="1260" as="targetPoint" />
          </mxGeometry>
        </mxCell>
        <mxCell id="ghqXPNyZ9U7g0pVwa6VU-52" value="Feedback" style="whiteSpace=wrap;html=1;align=center;" parent="1" vertex="1">
          <mxGeometry x="532.54" y="1830" width="100" height="40" as="geometry" />
        </mxCell>
        <mxCell id="ghqXPNyZ9U7g0pVwa6VU-53" value="" style="endArrow=none;html=1;rounded=0;exitX=1;exitY=0.5;exitDx=0;exitDy=0;entryX=0;entryY=0.5;entryDx=0;entryDy=0;" parent="1" source="ghqXPNyZ9U7g0pVwa6VU-49" target="ghqXPNyZ9U7g0pVwa6VU-52" edge="1">
          <mxGeometry width="50" height="50" relative="1" as="geometry">
            <mxPoint x="750" y="1800" as="sourcePoint" />
            <mxPoint x="800" y="1750" as="targetPoint" />
          </mxGeometry>
        </mxCell>
        <mxCell id="ghqXPNyZ9U7g0pVwa6VU-54" value="&lt;font style=&quot;font-size: 17px;&quot;&gt;1&lt;/font&gt;" style="text;html=1;align=center;verticalAlign=middle;resizable=0;points=[];autosize=1;strokeColor=none;fillColor=none;fontStyle=1" parent="1" vertex="1">
          <mxGeometry x="155.33999999999997" y="1850" width="30" height="30" as="geometry" />
        </mxCell>
        <mxCell id="ghqXPNyZ9U7g0pVwa6VU-55" value="feedback_id" style="ellipse;whiteSpace=wrap;html=1;align=center;fontStyle=4" parent="1" vertex="1">
          <mxGeometry x="347.17" y="1770" width="150" height="40" as="geometry" />
        </mxCell>
        <mxCell id="ghqXPNyZ9U7g0pVwa6VU-56" value="" style="endArrow=none;html=1;rounded=0;exitX=0.5;exitY=1;exitDx=0;exitDy=0;entryX=0;entryY=0.25;entryDx=0;entryDy=0;" parent="1" source="ghqXPNyZ9U7g0pVwa6VU-55" target="ghqXPNyZ9U7g0pVwa6VU-52" edge="1">
          <mxGeometry width="50" height="50" relative="1" as="geometry">
            <mxPoint x="750" y="1630" as="sourcePoint" />
            <mxPoint x="800" y="1580" as="targetPoint" />
          </mxGeometry>
        </mxCell>
        <mxCell id="ghqXPNyZ9U7g0pVwa6VU-58" value="exam_location" style="ellipse;shape=doubleEllipse;margin=3;whiteSpace=wrap;html=1;align=center;" parent="1" vertex="1">
          <mxGeometry x="585" y="1690" width="115" height="40" as="geometry" />
        </mxCell>
        <mxCell id="ghqXPNyZ9U7g0pVwa6VU-60" value="feedback_date" style="ellipse;whiteSpace=wrap;html=1;align=center;" parent="1" vertex="1">
          <mxGeometry x="530" y="1760" width="140" height="40" as="geometry" />
        </mxCell>
        <mxCell id="ghqXPNyZ9U7g0pVwa6VU-61" value="feedback_rating" style="ellipse;whiteSpace=wrap;html=1;align=center;" parent="1" vertex="1">
          <mxGeometry x="715" y="1790" width="140" height="40" as="geometry" />
        </mxCell>
        <mxCell id="ghqXPNyZ9U7g0pVwa6VU-63" value="feedback_comment" style="ellipse;whiteSpace=wrap;html=1;align=center;" parent="1" vertex="1">
          <mxGeometry x="436.99999999999994" y="1890" width="140" height="40" as="geometry" />
        </mxCell>
        <mxCell id="ghqXPNyZ9U7g0pVwa6VU-64" value="" style="endArrow=none;html=1;rounded=0;exitX=0.75;exitY=0;exitDx=0;exitDy=0;entryX=0.437;entryY=0.964;entryDx=0;entryDy=0;entryPerimeter=0;" parent="1" source="ghqXPNyZ9U7g0pVwa6VU-52" target="ghqXPNyZ9U7g0pVwa6VU-60" edge="1">
          <mxGeometry width="50" height="50" relative="1" as="geometry">
            <mxPoint x="660" y="1810" as="sourcePoint" />
            <mxPoint x="710" y="1760" as="targetPoint" />
          </mxGeometry>
        </mxCell>
        <mxCell id="ghqXPNyZ9U7g0pVwa6VU-65" value="" style="endArrow=none;html=1;rounded=0;entryX=0;entryY=0.5;entryDx=0;entryDy=0;" parent="1" target="ghqXPNyZ9U7g0pVwa6VU-61" edge="1">
          <mxGeometry width="50" height="50" relative="1" as="geometry">
            <mxPoint x="633" y="1840" as="sourcePoint" />
            <mxPoint x="710" y="1760" as="targetPoint" />
          </mxGeometry>
        </mxCell>
        <mxCell id="ghqXPNyZ9U7g0pVwa6VU-67" value="" style="endArrow=none;html=1;rounded=0;exitX=0.289;exitY=0.075;exitDx=0;exitDy=0;exitPerimeter=0;entryX=0.25;entryY=1;entryDx=0;entryDy=0;" parent="1" source="ghqXPNyZ9U7g0pVwa6VU-63" target="ghqXPNyZ9U7g0pVwa6VU-52" edge="1">
          <mxGeometry width="50" height="50" relative="1" as="geometry">
            <mxPoint x="660" y="1810" as="sourcePoint" />
            <mxPoint x="710" y="1760" as="targetPoint" />
          </mxGeometry>
        </mxCell>
        <mxCell id="ghqXPNyZ9U7g0pVwa6VU-90" value="m" style="text;html=1;align=center;verticalAlign=middle;resizable=0;points=[];autosize=1;strokeColor=none;fillColor=none;fontSize=17;fontStyle=1" parent="1" vertex="1">
          <mxGeometry x="1125" y="1515" width="40" height="30" as="geometry" />
        </mxCell>
        <mxCell id="ghqXPNyZ9U7g0pVwa6VU-93" value="schedule_name" style="ellipse;whiteSpace=wrap;html=1;" parent="1" vertex="1">
          <mxGeometry x="1240.17" y="1930" width="130" height="40" as="geometry" />
        </mxCell>
        <mxCell id="ghqXPNyZ9U7g0pVwa6VU-94" value="" style="endArrow=none;html=1;rounded=0;exitX=1;exitY=0.5;exitDx=0;exitDy=0;entryX=0.061;entryY=0.814;entryDx=0;entryDy=0;entryPerimeter=0;" parent="1" source="UdkjZhPED4S_4okrrKyf-220" target="ghqXPNyZ9U7g0pVwa6VU-93" edge="1">
          <mxGeometry width="50" height="50" relative="1" as="geometry">
            <mxPoint x="1040" y="1890" as="sourcePoint" />
            <mxPoint x="1090" y="1840" as="targetPoint" />
          </mxGeometry>
        </mxCell>
        <mxCell id="ghqXPNyZ9U7g0pVwa6VU-100" value="" style="endArrow=none;html=1;rounded=0;exitX=1;exitY=0.75;exitDx=0;exitDy=0;entryX=1;entryY=0.5;entryDx=0;entryDy=0;jumpStyle=arc;" parent="1" source="UdkjZhPED4S_4okrrKyf-122" target="ghqXPNyZ9U7g0pVwa6VU-101" edge="1">
          <mxGeometry width="50" height="50" relative="1" as="geometry">
            <mxPoint x="1570" y="430" as="sourcePoint" />
            <mxPoint x="1610" y="1830" as="targetPoint" />
            <Array as="points">
              <mxPoint x="1600" y="500" />
              <mxPoint x="1600" y="1850" />
            </Array>
          </mxGeometry>
        </mxCell>
        <mxCell id="ghqXPNyZ9U7g0pVwa6VU-101" value="send" style="shape=rhombus;perimeter=rhombusPerimeter;whiteSpace=wrap;html=1;align=center;" parent="1" vertex="1">
          <mxGeometry x="1197.46" y="1820" width="120" height="60" as="geometry" />
        </mxCell>
        <mxCell id="ghqXPNyZ9U7g0pVwa6VU-102" value="" style="endArrow=none;html=1;rounded=0;entryX=0;entryY=0.5;entryDx=0;entryDy=0;jumpStyle=arc;exitX=1;exitY=0.5;exitDx=0;exitDy=0;" parent="1" source="ghqXPNyZ9U7g0pVwa6VU-52" target="ghqXPNyZ9U7g0pVwa6VU-101" edge="1">
          <mxGeometry width="50" height="50" relative="1" as="geometry">
            <mxPoint x="630" y="1880" as="sourcePoint" />
            <mxPoint x="1290" y="2010" as="targetPoint" />
          </mxGeometry>
        </mxCell>
        <mxCell id="ghqXPNyZ9U7g0pVwa6VU-103" value="&lt;font style=&quot;font-size: 17px;&quot;&gt;1&lt;/font&gt;" style="text;html=1;align=center;verticalAlign=middle;resizable=0;points=[];autosize=1;strokeColor=none;fillColor=none;fontStyle=1" parent="1" vertex="1">
          <mxGeometry x="1317.46" y="1820" width="30" height="30" as="geometry" />
        </mxCell>
        <mxCell id="ghqXPNyZ9U7g0pVwa6VU-104" value="&lt;font style=&quot;font-size: 17px;&quot;&gt;m&lt;/font&gt;" style="text;html=1;align=center;verticalAlign=middle;resizable=0;points=[];autosize=1;strokeColor=none;fillColor=none;fontStyle=1" parent="1" vertex="1">
          <mxGeometry x="1154.8300000000002" y="1810" width="40" height="30" as="geometry" />
        </mxCell>
        <mxCell id="ghqXPNyZ9U7g0pVwa6VU-105" value="" style="endArrow=none;html=1;rounded=0;exitX=0.25;exitY=1;exitDx=0;exitDy=0;entryX=0;entryY=0.5;entryDx=0;entryDy=0;" parent="1" source="UdkjZhPED4S_4okrrKyf-120" target="ghqXPNyZ9U7g0pVwa6VU-106" edge="1">
          <mxGeometry relative="1" as="geometry">
            <mxPoint x="603" y="464" as="sourcePoint" />
            <mxPoint x="190" y="2240" as="targetPoint" />
            <Array as="points">
              <mxPoint x="155" y="580" />
              <mxPoint x="20" y="580" />
              <mxPoint x="20" y="2200" />
            </Array>
          </mxGeometry>
        </mxCell>
        <mxCell id="ghqXPNyZ9U7g0pVwa6VU-106" value="adds" style="shape=rhombus;perimeter=rhombusPerimeter;whiteSpace=wrap;html=1;align=center;" parent="1" vertex="1">
          <mxGeometry x="185.34" y="2170" width="120" height="60" as="geometry" />
        </mxCell>
        <mxCell id="ghqXPNyZ9U7g0pVwa6VU-107" value="status" style="ellipse;whiteSpace=wrap;html=1;align=center;" parent="1" vertex="1">
          <mxGeometry x="282" y="2070" width="130" height="40" as="geometry" />
        </mxCell>
        <mxCell id="ghqXPNyZ9U7g0pVwa6VU-108" value="" style="endArrow=none;html=1;rounded=0;exitX=0.5;exitY=1;exitDx=0;exitDy=0;entryX=0.5;entryY=0;entryDx=0;entryDy=0;" parent="1" source="UdkjZhPED4S_4okrrKyf-238" target="ghqXPNyZ9U7g0pVwa6VU-107" edge="1">
          <mxGeometry width="50" height="50" relative="1" as="geometry">
            <mxPoint x="335" y="2070" as="sourcePoint" />
            <mxPoint x="417" y="2096" as="targetPoint" />
          </mxGeometry>
        </mxCell>
        <mxCell id="ghqXPNyZ9U7g0pVwa6VU-109" value="Message" style="whiteSpace=wrap;html=1;align=center;" parent="1" vertex="1">
          <mxGeometry x="391.99999999999994" y="2180" width="100" height="40" as="geometry" />
        </mxCell>
        <mxCell id="ghqXPNyZ9U7g0pVwa6VU-110" value="" style="endArrow=none;html=1;rounded=0;exitX=1;exitY=0.5;exitDx=0;exitDy=0;entryX=0;entryY=0.5;entryDx=0;entryDy=0;shape=link;" parent="1" source="ghqXPNyZ9U7g0pVwa6VU-106" target="ghqXPNyZ9U7g0pVwa6VU-109" edge="1">
          <mxGeometry width="50" height="50" relative="1" as="geometry">
            <mxPoint x="440" y="2140" as="sourcePoint" />
            <mxPoint x="490" y="2090" as="targetPoint" />
          </mxGeometry>
        </mxCell>
        <mxCell id="ghqXPNyZ9U7g0pVwa6VU-111" value="&lt;font style=&quot;font-size: 17px;&quot;&gt;1&lt;/font&gt;" style="text;html=1;align=center;verticalAlign=middle;resizable=0;points=[];autosize=1;strokeColor=none;fillColor=none;fontStyle=1" parent="1" vertex="1">
          <mxGeometry x="135.51" y="2160" width="30" height="30" as="geometry" />
        </mxCell>
        <mxCell id="ghqXPNyZ9U7g0pVwa6VU-112" value="&lt;font style=&quot;font-size: 17px;&quot;&gt;&lt;b&gt;m&lt;/b&gt;&lt;/font&gt;" style="text;html=1;align=center;verticalAlign=middle;resizable=0;points=[];autosize=1;strokeColor=none;fillColor=none;" parent="1" vertex="1">
          <mxGeometry x="287.54" y="2170" width="40" height="30" as="geometry" />
        </mxCell>
        <mxCell id="ghqXPNyZ9U7g0pVwa6VU-113" value="message_date" style="ellipse;whiteSpace=wrap;html=1;align=center;" parent="1" vertex="1">
          <mxGeometry x="432.00000000000006" y="2250" width="130" height="40" as="geometry" />
        </mxCell>
        <mxCell id="ghqXPNyZ9U7g0pVwa6VU-114" value="content" style="ellipse;whiteSpace=wrap;html=1;align=center;" parent="1" vertex="1">
          <mxGeometry x="277" y="2260" width="130" height="40" as="geometry" />
        </mxCell>
        <mxCell id="ghqXPNyZ9U7g0pVwa6VU-115" value="&lt;u&gt;message_id&lt;/u&gt;" style="ellipse;whiteSpace=wrap;html=1;align=center;" parent="1" vertex="1">
          <mxGeometry x="122.53999999999999" y="2250" width="130" height="40" as="geometry" />
        </mxCell>
        <mxCell id="ghqXPNyZ9U7g0pVwa6VU-116" value="" style="endArrow=none;html=1;rounded=0;exitX=0.645;exitY=1.038;exitDx=0;exitDy=0;entryX=0.365;entryY=0.045;entryDx=0;entryDy=0;entryPerimeter=0;exitPerimeter=0;" parent="1" source="ghqXPNyZ9U7g0pVwa6VU-109" target="ghqXPNyZ9U7g0pVwa6VU-113" edge="1">
          <mxGeometry width="50" height="50" relative="1" as="geometry">
            <mxPoint x="880" y="2090" as="sourcePoint" />
            <mxPoint x="930" y="2040" as="targetPoint" />
          </mxGeometry>
        </mxCell>
        <mxCell id="ghqXPNyZ9U7g0pVwa6VU-117" value="" style="endArrow=none;html=1;rounded=0;exitX=0.25;exitY=1;exitDx=0;exitDy=0;" parent="1" source="ghqXPNyZ9U7g0pVwa6VU-109" target="ghqXPNyZ9U7g0pVwa6VU-114" edge="1">
          <mxGeometry width="50" height="50" relative="1" as="geometry">
            <mxPoint x="880" y="2090" as="sourcePoint" />
            <mxPoint x="930" y="2040" as="targetPoint" />
          </mxGeometry>
        </mxCell>
        <mxCell id="ghqXPNyZ9U7g0pVwa6VU-118" value="" style="endArrow=none;html=1;rounded=0;exitX=0.704;exitY=-0.025;exitDx=0;exitDy=0;exitPerimeter=0;entryX=0.1;entryY=0.962;entryDx=0;entryDy=0;entryPerimeter=0;" parent="1" source="ghqXPNyZ9U7g0pVwa6VU-115" target="ghqXPNyZ9U7g0pVwa6VU-109" edge="1">
          <mxGeometry width="50" height="50" relative="1" as="geometry">
            <mxPoint x="880" y="2090" as="sourcePoint" />
            <mxPoint x="930" y="2040" as="targetPoint" />
          </mxGeometry>
        </mxCell>
        <mxCell id="ghqXPNyZ9U7g0pVwa6VU-119" value="CourseWork" style="whiteSpace=wrap;html=1;align=center;" parent="1" vertex="1">
          <mxGeometry x="935.17" y="2160" width="100" height="40" as="geometry" />
        </mxCell>
        <mxCell id="ghqXPNyZ9U7g0pVwa6VU-120" value="" style="endArrow=none;html=1;rounded=0;exitX=1;exitY=0.5;exitDx=0;exitDy=0;entryX=1;entryY=0.5;entryDx=0;entryDy=0;jumpStyle=arc;" parent="1" source="UdkjZhPED4S_4okrrKyf-122" target="ghqXPNyZ9U7g0pVwa6VU-121" edge="1">
          <mxGeometry width="50" height="50" relative="1" as="geometry">
            <mxPoint x="1570" y="453" as="sourcePoint" />
            <mxPoint x="1040" y="2230" as="targetPoint" />
            <Array as="points">
              <mxPoint x="1620" y="490" />
              <mxPoint x="1620" y="2180" />
            </Array>
          </mxGeometry>
        </mxCell>
        <mxCell id="ghqXPNyZ9U7g0pVwa6VU-121" value="manage" style="shape=rhombus;perimeter=rhombusPerimeter;whiteSpace=wrap;html=1;align=center;" parent="1" vertex="1">
          <mxGeometry x="1308.27" y="2150" width="120" height="60" as="geometry" />
        </mxCell>
        <mxCell id="ghqXPNyZ9U7g0pVwa6VU-122" value="" style="endArrow=none;html=1;rounded=0;entryX=0;entryY=0.5;entryDx=0;entryDy=0;exitX=1;exitY=0.5;exitDx=0;exitDy=0;shape=link;" parent="1" source="ghqXPNyZ9U7g0pVwa6VU-119" target="ghqXPNyZ9U7g0pVwa6VU-121" edge="1">
          <mxGeometry width="50" height="50" relative="1" as="geometry">
            <mxPoint x="880" y="2050" as="sourcePoint" />
            <mxPoint x="930" y="2000" as="targetPoint" />
          </mxGeometry>
        </mxCell>
        <mxCell id="ghqXPNyZ9U7g0pVwa6VU-123" value="&lt;font style=&quot;font-size: 17px;&quot;&gt;1&lt;/font&gt;" style="text;html=1;align=center;verticalAlign=middle;resizable=0;points=[];autosize=1;strokeColor=none;fillColor=none;fontStyle=1" parent="1" vertex="1">
          <mxGeometry x="1437" y="2190" width="30" height="30" as="geometry" />
        </mxCell>
        <mxCell id="ghqXPNyZ9U7g0pVwa6VU-124" value="&lt;font style=&quot;font-size: 17px;&quot;&gt;m&lt;/font&gt;" style="text;html=1;align=center;verticalAlign=middle;resizable=0;points=[];autosize=1;strokeColor=none;fillColor=none;fontStyle=1" parent="1" vertex="1">
          <mxGeometry x="1238.76" y="2190" width="40" height="30" as="geometry" />
        </mxCell>
        <mxCell id="ghqXPNyZ9U7g0pVwa6VU-125" value="deadline" style="ellipse;whiteSpace=wrap;html=1;" parent="1" vertex="1">
          <mxGeometry x="927.67" y="2090" width="115" height="40" as="geometry" />
        </mxCell>
        <mxCell id="ghqXPNyZ9U7g0pVwa6VU-126" value="coursework_id" style="ellipse;whiteSpace=wrap;html=1;fontStyle=4" parent="1" vertex="1">
          <mxGeometry x="787.17" y="2250" width="130" height="40" as="geometry" />
        </mxCell>
        <mxCell id="ghqXPNyZ9U7g0pVwa6VU-127" value="" style="endArrow=none;html=1;rounded=0;entryX=0;entryY=1;entryDx=0;entryDy=0;" parent="1" source="ghqXPNyZ9U7g0pVwa6VU-126" target="ghqXPNyZ9U7g0pVwa6VU-119" edge="1">
          <mxGeometry width="50" height="50" relative="1" as="geometry">
            <mxPoint x="880" y="2120" as="sourcePoint" />
            <mxPoint x="930" y="2070" as="targetPoint" />
          </mxGeometry>
        </mxCell>
        <mxCell id="ghqXPNyZ9U7g0pVwa6VU-128" value="" style="endArrow=none;html=1;rounded=0;exitX=0.349;exitY=0.053;exitDx=0;exitDy=0;exitPerimeter=0;entryX=0.5;entryY=1;entryDx=0;entryDy=0;" parent="1" source="ghqXPNyZ9U7g0pVwa6VU-119" target="ghqXPNyZ9U7g0pVwa6VU-125" edge="1">
          <mxGeometry width="50" height="50" relative="1" as="geometry">
            <mxPoint x="880" y="2120" as="sourcePoint" />
            <mxPoint x="930" y="2070" as="targetPoint" />
          </mxGeometry>
        </mxCell>
        <mxCell id="ghqXPNyZ9U7g0pVwa6VU-130" value="has" style="shape=rhombus;perimeter=rhombusPerimeter;whiteSpace=wrap;html=1;align=center;" parent="1" vertex="1">
          <mxGeometry x="1340" y="2080" width="120" height="60" as="geometry" />
        </mxCell>
        <mxCell id="ghqXPNyZ9U7g0pVwa6VU-131" value="" style="endArrow=none;html=1;rounded=0;exitX=0.5;exitY=0;exitDx=0;exitDy=0;entryX=0.998;entryY=0.5;entryDx=0;entryDy=0;entryPerimeter=0;jumpStyle=arc;" parent="1" source="ghqXPNyZ9U7g0pVwa6VU-130" target="UdkjZhPED4S_4okrrKyf-175" edge="1">
          <mxGeometry width="50" height="50" relative="1" as="geometry">
            <mxPoint x="880" y="1770" as="sourcePoint" />
            <mxPoint x="1320" y="1310" as="targetPoint" />
            <Array as="points">
              <mxPoint x="1400" y="1720" />
              <mxPoint x="1530" y="1720" />
              <mxPoint x="1530" y="1365" />
            </Array>
          </mxGeometry>
        </mxCell>
        <mxCell id="ghqXPNyZ9U7g0pVwa6VU-132" value="&lt;font style=&quot;font-size: 17px;&quot;&gt;1&lt;/font&gt;" style="text;html=1;align=center;verticalAlign=middle;resizable=0;points=[];autosize=1;strokeColor=none;fillColor=none;fontStyle=1" parent="1" vertex="1">
          <mxGeometry x="1355" y="2055" width="30" height="30" as="geometry" />
        </mxCell>
        <mxCell id="ghqXPNyZ9U7g0pVwa6VU-133" value="&lt;font style=&quot;font-size: 17px;&quot;&gt;m&lt;/font&gt;" style="text;html=1;align=center;verticalAlign=middle;resizable=0;points=[];autosize=1;strokeColor=none;fillColor=none;fontStyle=1" parent="1" vertex="1">
          <mxGeometry x="1250.17" y="2110" width="40" height="30" as="geometry" />
        </mxCell>
        <mxCell id="ghqXPNyZ9U7g0pVwa6VU-134" value="" style="endArrow=none;html=1;rounded=0;entryX=0;entryY=0.5;entryDx=0;entryDy=0;" parent="1" target="ghqXPNyZ9U7g0pVwa6VU-136" edge="1">
          <mxGeometry relative="1" as="geometry">
            <mxPoint x="610" y="510" as="sourcePoint" />
            <mxPoint x="910" y="2250" as="targetPoint" />
            <Array as="points">
              <mxPoint x="610" y="530" />
              <mxPoint x="560" y="530" />
              <mxPoint x="560" y="630" />
              <mxPoint x="40" y="630" />
              <mxPoint x="50" y="2145" />
            </Array>
          </mxGeometry>
        </mxCell>
        <mxCell id="ghqXPNyZ9U7g0pVwa6VU-136" value="submit" style="shape=rhombus;perimeter=rhombusPerimeter;whiteSpace=wrap;html=1;align=center;" parent="1" vertex="1">
          <mxGeometry x="687" y="2115" width="120" height="60" as="geometry" />
        </mxCell>
        <mxCell id="ghqXPNyZ9U7g0pVwa6VU-137" value="" style="endArrow=none;html=1;rounded=0;entryX=0;entryY=0.5;entryDx=0;entryDy=0;exitX=1;exitY=0.5;exitDx=0;exitDy=0;shape=link;" parent="1" source="ghqXPNyZ9U7g0pVwa6VU-136" target="ghqXPNyZ9U7g0pVwa6VU-119" edge="1">
          <mxGeometry width="50" height="50" relative="1" as="geometry">
            <mxPoint x="750" y="2220" as="sourcePoint" />
            <mxPoint x="500" y="2150" as="targetPoint" />
            <Array as="points">
              <mxPoint x="807" y="2180" />
            </Array>
          </mxGeometry>
        </mxCell>
        <mxCell id="ghqXPNyZ9U7g0pVwa6VU-138" value="&lt;font style=&quot;font-size: 17px;&quot;&gt;m&lt;/font&gt;" style="text;html=1;align=center;verticalAlign=middle;resizable=0;points=[];autosize=1;strokeColor=none;fillColor=none;fontStyle=1" parent="1" vertex="1">
          <mxGeometry x="810" y="2140" width="40" height="30" as="geometry" />
        </mxCell>
        <mxCell id="ghqXPNyZ9U7g0pVwa6VU-139" value="&lt;font style=&quot;font-size: 17px;&quot;&gt;n&lt;/font&gt;" style="text;html=1;align=center;verticalAlign=middle;resizable=0;points=[];autosize=1;strokeColor=none;fillColor=none;fontStyle=1" parent="1" vertex="1">
          <mxGeometry x="637.17" y="2120" width="30" height="30" as="geometry" />
        </mxCell>
        <mxCell id="ghqXPNyZ9U7g0pVwa6VU-141" value="coursework_content" style="ellipse;whiteSpace=wrap;html=1;" parent="1" vertex="1">
          <mxGeometry x="1050.1700000000003" y="2260" width="140" height="40" as="geometry" />
        </mxCell>
        <mxCell id="ghqXPNyZ9U7g0pVwa6VU-142" value="" style="endArrow=none;html=1;rounded=0;entryX=0.281;entryY=0.062;entryDx=0;entryDy=0;entryPerimeter=0;exitX=0.75;exitY=1;exitDx=0;exitDy=0;" parent="1" source="ghqXPNyZ9U7g0pVwa6VU-119" target="ghqXPNyZ9U7g0pVwa6VU-141" edge="1">
          <mxGeometry width="50" height="50" relative="1" as="geometry">
            <mxPoint x="1010" y="2250" as="sourcePoint" />
            <mxPoint x="880" y="2100" as="targetPoint" />
          </mxGeometry>
        </mxCell>
        <mxCell id="ghqXPNyZ9U7g0pVwa6VU-143" value="date" style="ellipse;whiteSpace=wrap;html=1;" parent="1" vertex="1">
          <mxGeometry x="929.83" y="2250" width="92.17" height="40" as="geometry" />
        </mxCell>
        <mxCell id="ghqXPNyZ9U7g0pVwa6VU-144" value="" style="endArrow=none;html=1;rounded=0;" parent="1" source="ghqXPNyZ9U7g0pVwa6VU-143" target="ghqXPNyZ9U7g0pVwa6VU-119" edge="1">
          <mxGeometry width="50" height="50" relative="1" as="geometry">
            <mxPoint x="830" y="2150" as="sourcePoint" />
            <mxPoint x="880" y="2100" as="targetPoint" />
          </mxGeometry>
        </mxCell>
        <mxCell id="ghqXPNyZ9U7g0pVwa6VU-145" value="coursework_file" style="ellipse;whiteSpace=wrap;html=1;" parent="1" vertex="1">
          <mxGeometry x="1098.7600000000002" y="2210" width="140" height="40" as="geometry" />
        </mxCell>
        <mxCell id="ghqXPNyZ9U7g0pVwa6VU-146" value="" style="endArrow=none;html=1;rounded=0;entryX=0;entryY=0;entryDx=0;entryDy=0;exitX=1;exitY=0.75;exitDx=0;exitDy=0;" parent="1" source="ghqXPNyZ9U7g0pVwa6VU-119" target="ghqXPNyZ9U7g0pVwa6VU-145" edge="1">
          <mxGeometry width="50" height="50" relative="1" as="geometry">
            <mxPoint x="830" y="2170" as="sourcePoint" />
            <mxPoint x="880" y="2120" as="targetPoint" />
          </mxGeometry>
        </mxCell>
        <mxCell id="ghqXPNyZ9U7g0pVwa6VU-147" value="uploaded_content" style="ellipse;whiteSpace=wrap;html=1;align=center;" parent="1" vertex="1">
          <mxGeometry x="515" y="2170" width="130" height="40" as="geometry" />
        </mxCell>
        <mxCell id="ghqXPNyZ9U7g0pVwa6VU-148" value="uploaded_file" style="ellipse;whiteSpace=wrap;html=1;align=center;" parent="1" vertex="1">
          <mxGeometry x="680" y="2040" width="130" height="40" as="geometry" />
        </mxCell>
        <mxCell id="ghqXPNyZ9U7g0pVwa6VU-149" value="" style="endArrow=none;html=1;rounded=0;entryX=0.5;entryY=1;entryDx=0;entryDy=0;exitX=0.5;exitY=0;exitDx=0;exitDy=0;" parent="1" source="ghqXPNyZ9U7g0pVwa6VU-136" target="ghqXPNyZ9U7g0pVwa6VU-148" edge="1">
          <mxGeometry width="50" height="50" relative="1" as="geometry">
            <mxPoint x="830" y="2170" as="sourcePoint" />
            <mxPoint x="880" y="2120" as="targetPoint" />
          </mxGeometry>
        </mxCell>
        <mxCell id="ghqXPNyZ9U7g0pVwa6VU-150" value="" style="endArrow=none;html=1;rounded=0;exitX=1;exitY=0.5;exitDx=0;exitDy=0;entryX=0.5;entryY=1;entryDx=0;entryDy=0;" parent="1" source="ghqXPNyZ9U7g0pVwa6VU-147" target="ghqXPNyZ9U7g0pVwa6VU-136" edge="1">
          <mxGeometry width="50" height="50" relative="1" as="geometry">
            <mxPoint x="830" y="2170" as="sourcePoint" />
            <mxPoint x="880" y="2120" as="targetPoint" />
          </mxGeometry>
        </mxCell>
        <mxCell id="ghqXPNyZ9U7g0pVwa6VU-151" value="uploaded_date" style="ellipse;whiteSpace=wrap;html=1;align=center;" parent="1" vertex="1">
          <mxGeometry x="567" y="2230" width="130" height="40" as="geometry" />
        </mxCell>
        <mxCell id="ghqXPNyZ9U7g0pVwa6VU-152" value="" style="endArrow=none;html=1;rounded=0;entryX=0.5;entryY=0;entryDx=0;entryDy=0;exitX=0.5;exitY=1;exitDx=0;exitDy=0;" parent="1" source="ghqXPNyZ9U7g0pVwa6VU-136" target="ghqXPNyZ9U7g0pVwa6VU-151" edge="1">
          <mxGeometry width="50" height="50" relative="1" as="geometry">
            <mxPoint x="830" y="2170" as="sourcePoint" />
            <mxPoint x="880" y="2120" as="targetPoint" />
          </mxGeometry>
        </mxCell>
        <mxCell id="ghqXPNyZ9U7g0pVwa6VU-154" style="edgeStyle=orthogonalEdgeStyle;rounded=0;orthogonalLoop=1;jettySize=auto;html=1;exitX=0.5;exitY=1;exitDx=0;exitDy=0;" parent="1" source="ghqXPNyZ9U7g0pVwa6VU-125" target="ghqXPNyZ9U7g0pVwa6VU-125" edge="1">
          <mxGeometry relative="1" as="geometry" />
        </mxCell>
        <mxCell id="Gio4Mi2FVh02s7rwVqTb-1" value="city" style="ellipse;whiteSpace=wrap;html=1;align=center;" parent="1" vertex="1">
          <mxGeometry x="515" y="275" width="90" height="30" as="geometry" />
        </mxCell>
        <mxCell id="Gio4Mi2FVh02s7rwVqTb-2" value="no" style="ellipse;whiteSpace=wrap;html=1;align=center;" parent="1" vertex="1">
          <mxGeometry x="370" y="270" width="90" height="30" as="geometry" />
        </mxCell>
        <mxCell id="Gio4Mi2FVh02s7rwVqTb-3" value="street" style="ellipse;whiteSpace=wrap;html=1;align=center;" parent="1" vertex="1">
          <mxGeometry x="252.09" y="225" width="90" height="30" as="geometry" />
        </mxCell>
        <mxCell id="Gio4Mi2FVh02s7rwVqTb-4" value="" style="endArrow=none;html=1;rounded=0;exitX=0.402;exitY=-0.022;exitDx=0;exitDy=0;exitPerimeter=0;" parent="1" source="Gio4Mi2FVh02s7rwVqTb-1" target="Ux8aAjsgrgjQNakn-wIU-1" edge="1">
          <mxGeometry width="50" height="50" relative="1" as="geometry">
            <mxPoint x="550" y="270" as="sourcePoint" />
            <mxPoint x="600" y="220" as="targetPoint" />
          </mxGeometry>
        </mxCell>
        <mxCell id="Gio4Mi2FVh02s7rwVqTb-7" value="" style="endArrow=none;html=1;rounded=0;exitX=1;exitY=0.5;exitDx=0;exitDy=0;entryX=0;entryY=0.5;entryDx=0;entryDy=0;" parent="1" source="Gio4Mi2FVh02s7rwVqTb-3" target="Ux8aAjsgrgjQNakn-wIU-1" edge="1">
          <mxGeometry width="50" height="50" relative="1" as="geometry">
            <mxPoint x="550" y="270" as="sourcePoint" />
            <mxPoint x="600" y="220" as="targetPoint" />
          </mxGeometry>
        </mxCell>
        <mxCell id="Gio4Mi2FVh02s7rwVqTb-8" value="" style="endArrow=none;html=1;rounded=0;entryX=0.086;entryY=0.739;entryDx=0;entryDy=0;entryPerimeter=0;" parent="1" source="Gio4Mi2FVh02s7rwVqTb-2" target="Ux8aAjsgrgjQNakn-wIU-1" edge="1">
          <mxGeometry width="50" height="50" relative="1" as="geometry">
            <mxPoint x="370" y="75" as="sourcePoint" />
            <mxPoint x="510" y="80" as="targetPoint" />
          </mxGeometry>
        </mxCell>
        <mxCell id="Gio4Mi2FVh02s7rwVqTb-9" value="guardian_lname" style="ellipse;whiteSpace=wrap;html=1;align=center;" parent="1" vertex="1">
          <mxGeometry x="1115.17" y="360" width="100" height="40" as="geometry" />
        </mxCell>
        <mxCell id="Gio4Mi2FVh02s7rwVqTb-10" value="guardian_fname" style="ellipse;whiteSpace=wrap;html=1;align=center;" parent="1" vertex="1">
          <mxGeometry x="869.9999999999999" y="335" width="100" height="40" as="geometry" />
        </mxCell>
        <mxCell id="Gio4Mi2FVh02s7rwVqTb-11" value="" style="endArrow=none;html=1;rounded=0;" parent="1" source="UdkjZhPED4S_4okrrKyf-146" target="Gio4Mi2FVh02s7rwVqTb-9" edge="1">
          <mxGeometry width="50" height="50" relative="1" as="geometry">
            <mxPoint x="630.17" y="325" as="sourcePoint" />
            <mxPoint x="680.17" y="275" as="targetPoint" />
          </mxGeometry>
        </mxCell>
        <mxCell id="Gio4Mi2FVh02s7rwVqTb-12" value="" style="endArrow=none;html=1;rounded=0;exitX=0.28;exitY=0.108;exitDx=0;exitDy=0;entryX=0.5;entryY=1;entryDx=0;entryDy=0;exitPerimeter=0;" parent="1" source="UdkjZhPED4S_4okrrKyf-146" target="Gio4Mi2FVh02s7rwVqTb-10" edge="1">
          <mxGeometry width="50" height="50" relative="1" as="geometry">
            <mxPoint x="810.17" y="435" as="sourcePoint" />
            <mxPoint x="844.17" y="394" as="targetPoint" />
          </mxGeometry>
        </mxCell>
        <mxCell id="Gio4Mi2FVh02s7rwVqTb-23" value="batch_end_date" style="ellipse;whiteSpace=wrap;html=1;align=center;" parent="1" vertex="1">
          <mxGeometry x="1079.83" y="1230" width="140" height="40" as="geometry" />
        </mxCell>
        <mxCell id="Gio4Mi2FVh02s7rwVqTb-24" value="batch_start_date" style="ellipse;whiteSpace=wrap;html=1;align=center;" parent="1" vertex="1">
          <mxGeometry x="1392" y="1230" width="140" height="40" as="geometry" />
        </mxCell>
        <mxCell id="Gio4Mi2FVh02s7rwVqTb-25" value="" style="endArrow=none;html=1;rounded=0;entryX=0.378;entryY=0.94;entryDx=0;entryDy=0;exitX=1;exitY=0.25;exitDx=0;exitDy=0;entryPerimeter=0;" parent="1" source="UdkjZhPED4S_4okrrKyf-175" target="Gio4Mi2FVh02s7rwVqTb-24" edge="1">
          <mxGeometry relative="1" as="geometry">
            <mxPoint x="1265" y="1336" as="sourcePoint" />
            <mxPoint x="1287" y="1320" as="targetPoint" />
            <Array as="points" />
          </mxGeometry>
        </mxCell>
        <mxCell id="Gio4Mi2FVh02s7rwVqTb-26" value="" style="endArrow=none;html=1;rounded=0;exitX=0.5;exitY=1;exitDx=0;exitDy=0;entryX=0.25;entryY=0;entryDx=0;entryDy=0;" parent="1" source="Gio4Mi2FVh02s7rwVqTb-23" target="UdkjZhPED4S_4okrrKyf-175" edge="1">
          <mxGeometry relative="1" as="geometry">
            <mxPoint x="1387" y="1280" as="sourcePoint" />
            <mxPoint x="1290" y="1270" as="targetPoint" />
            <Array as="points" />
          </mxGeometry>
        </mxCell>
        <mxCell id="Gio4Mi2FVh02s7rwVqTb-28" value="teach" style="shape=rhombus;perimeter=rhombusPerimeter;whiteSpace=wrap;html=1;align=center;" parent="1" vertex="1">
          <mxGeometry x="1355" y="1020.0000000000001" width="120" height="60" as="geometry" />
        </mxCell>
        <mxCell id="Gio4Mi2FVh02s7rwVqTb-30" value="" style="endArrow=none;html=1;rounded=0;entryX=0.5;entryY=1;entryDx=0;entryDy=0;" parent="1" target="Gio4Mi2FVh02s7rwVqTb-28" edge="1">
          <mxGeometry width="50" height="50" relative="1" as="geometry">
            <mxPoint x="1290" y="1350" as="sourcePoint" />
            <mxPoint x="1310" y="1100" as="targetPoint" />
            <Array as="points">
              <mxPoint x="1290" y="1120" />
              <mxPoint x="1415" y="1120" />
            </Array>
          </mxGeometry>
        </mxCell>
        <mxCell id="Gio4Mi2FVh02s7rwVqTb-31" value="&lt;font style=&quot;font-size: 17px;&quot;&gt;1&lt;/font&gt;" style="text;html=1;align=center;verticalAlign=middle;resizable=0;points=[];autosize=1;strokeColor=none;fillColor=none;fontStyle=1" parent="1" vertex="1">
          <mxGeometry x="1412" y="990" width="30" height="30" as="geometry" />
        </mxCell>
        <mxCell id="Gio4Mi2FVh02s7rwVqTb-32" value="&lt;font style=&quot;font-size: 17px;&quot;&gt;m&lt;/font&gt;" style="text;html=1;align=center;verticalAlign=middle;resizable=0;points=[];autosize=1;strokeColor=none;fillColor=none;fontStyle=1" parent="1" vertex="1">
          <mxGeometry x="1415" y="1090" width="40" height="30" as="geometry" />
        </mxCell>
        <mxCell id="Gio4Mi2FVh02s7rwVqTb-33" value="exam_status" style="ellipse;whiteSpace=wrap;html=1;align=center;" parent="1" vertex="1">
          <mxGeometry x="822" y="1540" width="130" height="40" as="geometry" />
        </mxCell>
        <mxCell id="Gio4Mi2FVh02s7rwVqTb-34" value="" style="endArrow=none;html=1;rounded=0;exitX=1;exitY=0.25;exitDx=0;exitDy=0;entryX=0;entryY=0.5;entryDx=0;entryDy=0;" parent="1" source="bPdjGQ_32wZ3Fuaz51Pp-27" target="Gio4Mi2FVh02s7rwVqTb-33" edge="1">
          <mxGeometry width="50" height="50" relative="1" as="geometry">
            <mxPoint x="657" y="1650" as="sourcePoint" />
            <mxPoint x="691" y="1588" as="targetPoint" />
          </mxGeometry>
        </mxCell>
        <mxCell id="Gio4Mi2FVh02s7rwVqTb-35" value="schedule_status" style="ellipse;whiteSpace=wrap;html=1;align=center;" parent="1" vertex="1">
          <mxGeometry x="855" y="1930" width="130" height="40" as="geometry" />
        </mxCell>
        <mxCell id="Gio4Mi2FVh02s7rwVqTb-36" value="" style="endArrow=none;html=1;rounded=0;exitX=0.957;exitY=0.755;exitDx=0;exitDy=0;exitPerimeter=0;entryX=0;entryY=0;entryDx=0;entryDy=0;" parent="1" source="Gio4Mi2FVh02s7rwVqTb-35" target="UdkjZhPED4S_4okrrKyf-220" edge="1">
          <mxGeometry width="50" height="50" relative="1" as="geometry">
            <mxPoint x="1047" y="1990" as="sourcePoint" />
            <mxPoint x="1080" y="2020" as="targetPoint" />
          </mxGeometry>
        </mxCell>
        <mxCell id="pFeriK06zDPfB2XJO4WJ-10" value="RepeatExamPayment" style="whiteSpace=wrap;html=1;align=center;" parent="1" vertex="1">
          <mxGeometry x="624.83" y="1190" width="175" height="40" as="geometry" />
        </mxCell>
        <mxCell id="pFeriK06zDPfB2XJO4WJ-11" value="repeat_payment_id" style="ellipse;whiteSpace=wrap;html=1;align=center;fontStyle=4" parent="1" vertex="1">
          <mxGeometry x="532.5400000000001" y="1085" width="140" height="40" as="geometry" />
        </mxCell>
        <mxCell id="pFeriK06zDPfB2XJO4WJ-12" value="" style="endArrow=none;html=1;rounded=0;exitX=0.65;exitY=0.944;exitDx=0;exitDy=0;exitPerimeter=0;entryX=0.184;entryY=-0.048;entryDx=0;entryDy=0;entryPerimeter=0;" parent="1" source="pFeriK06zDPfB2XJO4WJ-11" target="pFeriK06zDPfB2XJO4WJ-10" edge="1">
          <mxGeometry relative="1" as="geometry">
            <mxPoint x="543" y="1150" as="sourcePoint" />
            <mxPoint x="659" y="1095" as="targetPoint" />
          </mxGeometry>
        </mxCell>
        <mxCell id="pFeriK06zDPfB2XJO4WJ-15" value="" style="endArrow=none;html=1;rounded=0;exitX=0;exitY=0.5;exitDx=0;exitDy=0;jumpStyle=arc;entryX=0.664;entryY=1.067;entryDx=0;entryDy=0;entryPerimeter=0;" parent="1" source="ghqXPNyZ9U7g0pVwa6VU-25" target="UdkjZhPED4S_4okrrKyf-86" edge="1">
          <mxGeometry width="50" height="50" relative="1" as="geometry">
            <mxPoint x="880" y="890" as="sourcePoint" />
            <mxPoint x="660" y="510" as="targetPoint" />
            <Array as="points">
              <mxPoint x="450" y="1370" />
              <mxPoint x="450" y="1120" />
              <mxPoint x="330" y="1120" />
              <mxPoint x="330" y="810" />
              <mxPoint x="660" y="810" />
              <mxPoint x="660" y="650" />
              <mxPoint x="751" y="650" />
            </Array>
          </mxGeometry>
        </mxCell>
        <mxCell id="pFeriK06zDPfB2XJO4WJ-18" value="p_date" style="ellipse;whiteSpace=wrap;html=1;align=center;" parent="1" vertex="1">
          <mxGeometry x="655.17" y="1270" width="140" height="40" as="geometry" />
        </mxCell>
        <mxCell id="pFeriK06zDPfB2XJO4WJ-20" value="exam_type" style="ellipse;whiteSpace=wrap;html=1;align=center;" parent="1" vertex="1">
          <mxGeometry x="310" y="1195" width="132.46" height="40" as="geometry" />
        </mxCell>
        <mxCell id="pFeriK06zDPfB2XJO4WJ-21" value="" style="endArrow=none;html=1;rounded=0;entryX=1;entryY=0;entryDx=0;entryDy=0;" parent="1" source="pFeriK06zDPfB2XJO4WJ-20" target="UdkjZhPED4S_4okrrKyf-87" edge="1">
          <mxGeometry relative="1" as="geometry">
            <mxPoint x="390" y="1345" as="sourcePoint" />
            <mxPoint x="315" y="1270" as="targetPoint" />
          </mxGeometry>
        </mxCell>
        <mxCell id="pFeriK06zDPfB2XJO4WJ-22" value="exam_fee" style="ellipse;whiteSpace=wrap;html=1;align=center;" parent="1" vertex="1">
          <mxGeometry x="182.09" y="1415" width="140" height="40" as="geometry" />
        </mxCell>
        <mxCell id="pFeriK06zDPfB2XJO4WJ-23" value="" style="endArrow=none;html=1;rounded=0;entryX=0.25;entryY=1;entryDx=0;entryDy=0;" parent="1" source="pFeriK06zDPfB2XJO4WJ-22" target="UdkjZhPED4S_4okrrKyf-87" edge="1">
          <mxGeometry relative="1" as="geometry">
            <mxPoint x="413" y="1292" as="sourcePoint" />
            <mxPoint x="300" y="1280" as="targetPoint" />
          </mxGeometry>
        </mxCell>
        <mxCell id="w-RnadfowD6wGREnBTG5-3" value="mobile" style="ellipse;shape=doubleEllipse;margin=3;whiteSpace=wrap;html=1;align=center;" parent="1" vertex="1">
          <mxGeometry x="530" y="90" width="100" height="40" as="geometry" />
        </mxCell>
        <mxCell id="w-RnadfowD6wGREnBTG5-7" value="" style="endArrow=none;html=1;rounded=0;entryX=0.5;entryY=0;entryDx=0;entryDy=0;shape=link;" parent="1" target="Gio4Mi2FVh02s7rwVqTb-28" edge="1">
          <mxGeometry width="50" height="50" relative="1" as="geometry">
            <mxPoint x="1530" y="510" as="sourcePoint" />
            <mxPoint x="1470" y="1040" as="targetPoint" />
            <Array as="points">
              <mxPoint x="1530" y="780" />
              <mxPoint x="1530" y="1020" />
            </Array>
          </mxGeometry>
        </mxCell>
        <mxCell id="w-RnadfowD6wGREnBTG5-8" value="name" style="ellipse;whiteSpace=wrap;html=1;align=center;" parent="1" vertex="1">
          <mxGeometry x="1074.8300000000002" y="165" width="100" height="30" as="geometry" />
        </mxCell>
        <mxCell id="w-RnadfowD6wGREnBTG5-9" value="" style="endArrow=none;html=1;rounded=0;entryX=0;entryY=1;entryDx=0;entryDy=0;" parent="1" source="UdkjZhPED4S_4okrrKyf-79" target="w-RnadfowD6wGREnBTG5-8" edge="1">
          <mxGeometry width="50" height="50" relative="1" as="geometry">
            <mxPoint x="727" y="150" as="sourcePoint" />
            <mxPoint x="794" y="98" as="targetPoint" />
          </mxGeometry>
        </mxCell>
        <mxCell id="w-RnadfowD6wGREnBTG5-13" value="payment_description" style="ellipse;whiteSpace=wrap;html=1;align=center;" parent="1" vertex="1">
          <mxGeometry x="749.83" y="880" width="140" height="40" as="geometry" />
        </mxCell>
        <mxCell id="w-RnadfowD6wGREnBTG5-14" value="" style="endArrow=none;html=1;rounded=0;entryX=1;entryY=0.5;entryDx=0;entryDy=0;exitX=0.311;exitY=1.007;exitDx=0;exitDy=0;exitPerimeter=0;" parent="1" source="w-RnadfowD6wGREnBTG5-13" target="UdkjZhPED4S_4okrrKyf-187" edge="1">
          <mxGeometry relative="1" as="geometry">
            <mxPoint x="607" y="1026" as="sourcePoint" />
            <mxPoint x="652" y="1075" as="targetPoint" />
          </mxGeometry>
        </mxCell>
        <mxCell id="TxaWYDUw6tSnyGA78lyz-3" value="guardian_mobile&amp;nbsp;" style="ellipse;shape=doubleEllipse;margin=3;whiteSpace=wrap;html=1;align=center;" parent="1" vertex="1">
          <mxGeometry x="927.63" y="507.5" width="112.54" height="40" as="geometry" />
        </mxCell>
        <mxCell id="TxaWYDUw6tSnyGA78lyz-4" value="teacher_specialization" style="ellipse;shape=doubleEllipse;margin=3;whiteSpace=wrap;html=1;align=center;" parent="1" vertex="1">
          <mxGeometry x="1300.17" y="557.5" width="154.83" height="40" as="geometry" />
        </mxCell>
        <mxCell id="TxaWYDUw6tSnyGA78lyz-13" value="gender" style="ellipse;whiteSpace=wrap;html=1;align=center;" parent="1" vertex="1">
          <mxGeometry x="1084.83" y="255" width="100" height="40" as="geometry" />
        </mxCell>
        <mxCell id="TxaWYDUw6tSnyGA78lyz-14" value="" style="endArrow=none;html=1;rounded=0;exitX=0;exitY=0;exitDx=0;exitDy=0;entryX=0.75;entryY=1;entryDx=0;entryDy=0;" parent="1" source="TxaWYDUw6tSnyGA78lyz-13" target="UdkjZhPED4S_4okrrKyf-79" edge="1">
          <mxGeometry relative="1" as="geometry">
            <mxPoint x="566" y="117" as="sourcePoint" />
            <mxPoint x="630" y="160" as="targetPoint" />
          </mxGeometry>
        </mxCell>
        <mxCell id="TxaWYDUw6tSnyGA78lyz-16" value="p_description" style="ellipse;whiteSpace=wrap;html=1;align=center;" parent="1" vertex="1">
          <mxGeometry x="745" y="1080" width="140" height="40" as="geometry" />
        </mxCell>
        <mxCell id="TxaWYDUw6tSnyGA78lyz-17" value="" style="endArrow=none;html=1;rounded=0;entryX=0.887;entryY=0;entryDx=0;entryDy=0;exitX=0.5;exitY=1;exitDx=0;exitDy=0;entryPerimeter=0;" parent="1" source="TxaWYDUw6tSnyGA78lyz-16" target="pFeriK06zDPfB2XJO4WJ-10" edge="1">
          <mxGeometry relative="1" as="geometry">
            <mxPoint x="803" y="930" as="sourcePoint" />
            <mxPoint x="747" y="960" as="targetPoint" />
          </mxGeometry>
        </mxCell>
        <mxCell id="TxaWYDUw6tSnyGA78lyz-18" value="" style="endArrow=none;html=1;rounded=0;entryX=0.5;entryY=0;entryDx=0;entryDy=0;exitX=0.437;exitY=1.006;exitDx=0;exitDy=0;exitPerimeter=0;" parent="1" source="pFeriK06zDPfB2XJO4WJ-18" target="ghqXPNyZ9U7g0pVwa6VU-25" edge="1">
          <mxGeometry relative="1" as="geometry">
            <mxPoint x="825" y="1130" as="sourcePoint" />
            <mxPoint x="790" y="1200" as="targetPoint" />
          </mxGeometry>
        </mxCell>
        <mxCell id="TxaWYDUw6tSnyGA78lyz-32" value="" style="endArrow=none;html=1;rounded=0;entryX=0.5;entryY=1;entryDx=0;entryDy=0;exitX=1;exitY=0.25;exitDx=0;exitDy=0;shape=link;" parent="1" source="ghqXPNyZ9U7g0pVwa6VU-119" target="ghqXPNyZ9U7g0pVwa6VU-130" edge="1">
          <mxGeometry width="50" height="50" relative="1" as="geometry">
            <mxPoint x="970" y="2140" as="sourcePoint" />
            <mxPoint x="1020" y="2090" as="targetPoint" />
            <Array as="points">
              <mxPoint x="1110" y="2170" />
              <mxPoint x="1110" y="2140" />
            </Array>
          </mxGeometry>
        </mxCell>
        <mxCell id="TxaWYDUw6tSnyGA78lyz-33" value="feedback_type" style="ellipse;whiteSpace=wrap;html=1;align=center;" parent="1" vertex="1">
          <mxGeometry x="647.5" y="1900" width="140" height="40" as="geometry" />
        </mxCell>
        <mxCell id="TxaWYDUw6tSnyGA78lyz-34" value="" style="endArrow=none;html=1;rounded=0;exitX=1;exitY=1;exitDx=0;exitDy=0;" parent="1" source="ghqXPNyZ9U7g0pVwa6VU-52" target="TxaWYDUw6tSnyGA78lyz-33" edge="1">
          <mxGeometry width="50" height="50" relative="1" as="geometry">
            <mxPoint x="618" y="1880" as="sourcePoint" />
            <mxPoint x="675" y="1910" as="targetPoint" />
          </mxGeometry>
        </mxCell>
        <mxCell id="TxaWYDUw6tSnyGA78lyz-35" value="coursework_grade" style="ellipse;whiteSpace=wrap;html=1;align=center;" parent="1" vertex="1">
          <mxGeometry x="777.0000000000001" y="2080" width="130" height="40" as="geometry" />
        </mxCell>
        <mxCell id="TxaWYDUw6tSnyGA78lyz-36" value="coursework_feedback" style="ellipse;whiteSpace=wrap;html=1;align=center;" parent="1" vertex="1">
          <mxGeometry x="547.0000000000001" y="2070" width="130" height="40" as="geometry" />
        </mxCell>
        <mxCell id="TxaWYDUw6tSnyGA78lyz-37" value="" style="endArrow=none;html=1;rounded=0;exitX=0.922;exitY=0.489;exitDx=0;exitDy=0;exitPerimeter=0;entryX=0.352;entryY=1.052;entryDx=0;entryDy=0;entryPerimeter=0;" parent="1" source="ghqXPNyZ9U7g0pVwa6VU-136" target="TxaWYDUw6tSnyGA78lyz-35" edge="1">
          <mxGeometry width="50" height="50" relative="1" as="geometry">
            <mxPoint x="1000" y="2040" as="sourcePoint" />
            <mxPoint x="1050" y="1990" as="targetPoint" />
          </mxGeometry>
        </mxCell>
        <mxCell id="TxaWYDUw6tSnyGA78lyz-38" value="" style="endArrow=none;html=1;rounded=0;exitX=0.731;exitY=0.969;exitDx=0;exitDy=0;exitPerimeter=0;entryX=0;entryY=0.5;entryDx=0;entryDy=0;" parent="1" source="TxaWYDUw6tSnyGA78lyz-36" target="ghqXPNyZ9U7g0pVwa6VU-136" edge="1">
          <mxGeometry width="50" height="50" relative="1" as="geometry">
            <mxPoint x="1000" y="2040" as="sourcePoint" />
            <mxPoint x="1050" y="1990" as="targetPoint" />
          </mxGeometry>
        </mxCell>
        <mxCell id="6oHFopruN9l4LaY-UtUE-1" value="payment_date" style="ellipse;whiteSpace=wrap;html=1;align=center;" parent="1" vertex="1">
          <mxGeometry x="442.46000000000004" y="820" width="140" height="40" as="geometry" />
        </mxCell>
        <mxCell id="6oHFopruN9l4LaY-UtUE-2" value="" style="endArrow=none;html=1;rounded=0;entryX=1;entryY=0.5;entryDx=0;entryDy=0;exitX=0;exitY=0.5;exitDx=0;exitDy=0;" parent="1" source="UdkjZhPED4S_4okrrKyf-208" target="6oHFopruN9l4LaY-UtUE-1" edge="1">
          <mxGeometry relative="1" as="geometry">
            <mxPoint x="803" y="930" as="sourcePoint" />
            <mxPoint x="747" y="960" as="targetPoint" />
          </mxGeometry>
        </mxCell>
        <mxCell id="6oHFopruN9l4LaY-UtUE-3" value="payment_amount" style="ellipse;whiteSpace=wrap;html=1;align=center;" parent="1" vertex="1">
          <mxGeometry x="447.00000000000006" y="920" width="140" height="40" as="geometry" />
        </mxCell>
        <mxCell id="6oHFopruN9l4LaY-UtUE-4" value="" style="endArrow=none;html=1;rounded=0;entryX=1;entryY=0.5;entryDx=0;entryDy=0;exitX=0;exitY=0.5;exitDx=0;exitDy=0;" parent="1" source="UdkjZhPED4S_4okrrKyf-187" target="6oHFopruN9l4LaY-UtUE-3" edge="1">
          <mxGeometry relative="1" as="geometry">
            <mxPoint x="803" y="930" as="sourcePoint" />
            <mxPoint x="747" y="960" as="targetPoint" />
          </mxGeometry>
        </mxCell>
        <mxCell id="6oHFopruN9l4LaY-UtUE-5" value="p_amount" style="ellipse;whiteSpace=wrap;html=1;align=center;" parent="1" vertex="1">
          <mxGeometry x="467.00000000000006" y="1230" width="140" height="40" as="geometry" />
        </mxCell>
        <mxCell id="6oHFopruN9l4LaY-UtUE-6" value="" style="endArrow=none;html=1;rounded=0;" parent="1" source="6oHFopruN9l4LaY-UtUE-5" edge="1">
          <mxGeometry width="50" height="50" relative="1" as="geometry">
            <mxPoint x="700" y="1000" as="sourcePoint" />
            <mxPoint x="620" y="1220" as="targetPoint" />
          </mxGeometry>
        </mxCell>
        <mxCell id="0l_ANs7Qo-XDdEv9PkJr-1" value="" style="endArrow=none;html=1;rounded=0;endFill=0;" parent="1" target="UdkjZhPED4S_4okrrKyf-91" edge="1">
          <mxGeometry width="50" height="50" relative="1" as="geometry">
            <mxPoint x="650" y="315" as="sourcePoint" />
            <mxPoint x="1500" y="468" as="targetPoint" />
            <Array as="points" />
          </mxGeometry>
        </mxCell>
        <mxCell id="UdkjZhPED4S_4okrrKyf-91" value="d" style="ellipse;whiteSpace=wrap;html=1;align=center;" parent="1" vertex="1">
          <mxGeometry x="747" y="295" width="50" height="40" as="geometry" />
        </mxCell>
        <mxCell id="0l_ANs7Qo-XDdEv9PkJr-2" value="" style="endArrow=none;html=1;rounded=0;entryX=0;entryY=0.5;entryDx=0;entryDy=0;" parent="1" target="UdkjZhPED4S_4okrrKyf-86" edge="1">
          <mxGeometry relative="1" as="geometry">
            <mxPoint x="700.17" y="505" as="sourcePoint" />
            <mxPoint x="935" y="505" as="targetPoint" />
          </mxGeometry>
        </mxCell>
        <mxCell id="UdkjZhPED4S_4okrrKyf-86" value="Student" style="whiteSpace=wrap;html=1;align=center;" parent="1" vertex="1">
          <mxGeometry x="595.34" y="467.5" width="234.66" height="40" as="geometry" />
        </mxCell>
      </root>
    </mxGraphModel>
  </diagram>
</mxfile>
